<svg width="334" height="289" viewBox="0 0 334 289" fill="none" xmlns="http://www.w3.org/2000/svg">
<path d="M85.8448 285.68L85.8896 285.589C100.109 256.546 116.477 241.933 137.395 239.546C155.911 237.442 175.171 245.14 195.592 253.308C222.457 264.055 250.294 275.189 276.837 262.406C287.706 257.171 293.275 250.382 294.308 241.041C295.236 232.645 292.395 222.893 289.392 212.599C284.817 196.914 279.648 179.171 285.388 160.235C292.025 138.343 312.171 118.815 347.023 100.549L347.11 100.504L347.067 100.414L346.866 99.9947L346.822 99.9032L346.733 99.9501C311.752 118.283 291.469 137.935 284.768 160.046C278.968 179.188 284.179 197.063 288.77 212.803C291.859 223.396 294.613 232.849 293.693 241.056C293.233 245.155 291.857 248.941 289.146 252.401C286.434 255.863 282.383 259.003 276.565 261.804C263.428 268.132 249.945 268.533 236.395 266.01C222.846 263.488 209.238 258.044 195.844 252.687L195.833 252.683L195.812 252.674C175.356 244.492 156.007 236.751 137.331 238.883C127.273 240.031 118.386 243.954 110.174 250.871C101 258.6 92.8637 269.861 85.3106 285.293L85.2665 285.383L85.3537 285.428L85.7561 285.635L85.8448 285.68Z" fill="url(#paint0_linear_125_213)" stroke="url(#paint1_linear_125_213)" stroke-width="0.2"/>
<path d="M83.4809 287.349L83.5288 287.259C98.0631 259.934 114.298 249.039 131.636 246.416C148.988 243.79 167.462 249.444 186.49 255.267L186.496 255.269C215.161 264.048 244.853 273.141 274.146 255.591C285.967 248.511 291.005 240.888 292.566 232.666C294.123 224.461 292.212 215.673 290.167 206.273L290.163 206.254C287.238 192.838 283.938 177.662 290.56 161.197C298.175 142.274 317.735 124.508 350.409 106.895L350.497 106.848L350.452 106.759L350.264 106.383L350.219 106.293L350.13 106.34C317.355 124.005 297.676 141.872 290 160.964C283.304 177.611 286.631 192.905 289.561 206.372L289.567 206.4C291.599 215.737 293.485 224.409 291.956 232.494C290.43 240.568 285.494 248.071 273.842 255.054C244.79 272.46 215.275 263.426 186.675 254.672L186.668 254.669L186.638 254.66C167.55 248.818 148.962 243.128 131.489 245.779C113.994 248.433 97.6329 259.444 82.9953 286.962L82.9483 287.05L83.0338 287.098L83.3938 287.3L83.4809 287.349Z" fill="url(#paint2_linear_125_213)" stroke="url(#paint3_linear_125_213)" stroke-width="0.2"/>
<path d="M81.0353 288.957L81.1204 289.01L81.172 288.922C94.609 265.978 109.685 256.357 125.821 253.437C141.968 250.515 159.189 254.3 176.927 258.202L176.947 258.11L176.927 258.202L177.024 258.223C192.003 261.51 207.514 264.914 223.306 264.623C241.233 264.281 256.982 259.116 271.459 248.787C283.214 240.402 288.645 232.383 290.888 224.43C293.129 216.486 292.186 208.619 291.218 200.552L291.216 200.542L291.216 200.54C289.832 188.989 288.36 176.697 295.78 162.532C303.202 148.362 319.533 132.301 353.801 113.252L353.887 113.204L353.842 113.115L353.666 112.776L353.62 112.687L353.532 112.735C319.138 131.852 302.714 148.002 295.241 162.291C287.768 176.583 289.258 188.999 290.652 200.611L290.653 200.617C291.615 208.632 292.546 216.401 290.334 224.243C288.124 232.08 282.772 240.002 271.136 248.303C238.994 271.227 207.528 264.321 177.048 257.62C158.895 253.627 141.724 249.852 125.52 252.813C107.282 256.144 93.0357 267.535 80.6849 288.622L80.6344 288.708L80.7177 288.76L81.0353 288.957Z" fill="url(#paint4_linear_125_213)" stroke="url(#paint5_linear_125_213)" stroke-width="0.2"/>
<path d="M78.6775 290.616L78.7601 290.675L78.8167 290.588C91.1234 271.828 104.62 263.497 119.291 260.454C133.971 257.41 149.834 259.657 166.882 262.074L166.961 262.085C182.814 264.329 199.224 266.652 216.249 264.754C235.616 262.602 252.793 255.145 268.767 241.974C280.404 232.377 286.284 224.256 289.28 216.771C292.275 209.288 292.383 202.45 292.494 195.438L292.494 195.436C292.646 185.836 292.803 176.095 300.918 164.146C309.039 152.19 325.134 138.017 357.194 119.586L357.28 119.537L357.233 119.45L357.077 119.154L357.029 119.064L356.942 119.115C324.79 137.596 308.621 151.835 300.454 163.877C292.283 175.923 292.125 185.765 291.97 195.42L291.97 195.426C291.858 202.398 291.748 209.159 288.784 216.56C285.82 223.96 279.997 232.01 268.44 241.542C232.888 270.869 197.883 265.911 166.959 261.528C150.164 259.146 134.28 256.894 119.422 259.952C102.748 263.38 89.7024 273.028 78.3835 290.285L78.3294 290.367L78.4083 290.424L78.6775 290.616Z" fill="url(#paint6_linear_125_213)" stroke="url(#paint7_linear_125_213)" stroke-width="0.2"/>
<path d="M76.311 292.277L76.3893 292.34L76.4505 292.258C87.5799 277.454 99.8074 270.545 113.112 267.618C126.424 264.689 140.816 265.744 156.281 266.878L156.283 266.878C189.207 269.298 226.567 272.042 266.064 235.157C277.419 224.556 283.764 216.219 287.563 209.19C291.359 202.167 292.61 196.456 293.78 191.113L293.784 191.097L293.785 191.091C295.497 183.274 297.089 176.004 305.795 166.183C314.509 156.353 330.353 143.965 360.584 125.935L360.669 125.885L360.621 125.798L360.477 125.539L360.428 125.451L360.342 125.502C330.053 143.567 314.156 156 305.401 165.888C296.64 175.783 295.033 183.128 293.312 190.994C292.147 196.32 290.906 201.988 287.133 208.965C283.359 215.942 277.049 224.233 265.741 234.795C226.399 271.534 189.182 268.803 156.318 266.388L156.309 266.387C141.025 265.262 126.569 264.197 113.14 267.143C98.0938 270.44 86.3141 278.324 76.0674 291.955L76.0074 292.035L76.0842 292.096L76.311 292.277Z" fill="url(#paint8_linear_125_213)" stroke="url(#paint9_linear_125_213)" stroke-width="0.2"/>
<path d="M73.9528 293.933L74.0257 294.005L74.0947 293.927C93.8695 271.718 117.537 272.121 145.008 272.588L145.017 272.588C162.694 272.892 180.984 273.203 200.78 267.762C223.398 261.541 243.871 248.649 263.367 228.357C283.997 206.876 289.793 196.235 294.023 188.459L294.028 188.451C297.51 182.053 300.123 177.253 309.292 169.437C318.472 161.611 334.22 150.765 363.98 132.282L364.063 132.231L364.015 132.145L363.89 131.923L363.84 131.835L363.753 131.888C333.967 150.387 318.189 161.255 308.984 169.107C299.771 176.964 297.137 181.804 293.637 188.237C289.42 195.986 283.646 206.592 263.054 228.033C241.258 250.723 220.477 261.893 200.786 267.319C181.096 272.745 162.492 272.427 145.039 272.13L145.03 272.129L145.009 272.129C117.501 271.657 93.6884 271.249 73.7707 293.616L73.7058 293.689L73.7744 293.757L73.9528 293.933Z" fill="url(#paint10_linear_125_213)" stroke="url(#paint11_linear_125_213)" stroke-width="0.2"/>
<path d="M71.5855 295.586L71.6505 295.662L71.7252 295.595C88.86 280.143 109.238 279.648 132.902 279.096L132.942 279.096C150.662 278.672 170.772 278.191 192.118 270.873C216.622 262.478 239.043 246.341 260.657 221.554C265.996 215.435 270.369 210.373 274.228 205.906L274.495 205.597C285.026 193.405 290.285 187.317 294.892 183.183C299.494 179.052 303.445 176.873 311.368 172.504C320.932 167.234 336.926 158.405 367.365 138.632L367.447 138.579L367.397 138.494L367.291 138.316L367.239 138.228L367.154 138.284C336.726 158.046 320.736 166.874 311.181 172.141L311.174 172.145C303.244 176.52 299.267 178.714 294.638 182.867C290.013 187.016 284.738 193.122 274.202 205.315L274.193 205.325L274.267 205.391L274.193 205.325L273.928 205.632C270.068 210.1 265.696 215.162 260.357 221.281L260.43 221.348L260.357 221.281C236.143 249.047 213.082 263.186 191.676 270.49C170.269 277.794 150.51 278.264 132.89 278.682L132.839 278.683C109.179 279.247 88.6986 279.736 71.4594 295.285L71.3851 295.352L71.4497 295.427L71.5855 295.586Z" fill="url(#paint12_linear_125_213)" stroke="url(#paint13_linear_125_213)" stroke-width="0.2"/>
<path d="M69.222 297.228L69.2751 297.314L69.3592 297.258C83.6035 287.785 100.309 287.052 119.699 286.202C138.416 285.386 159.437 284.467 182.551 275.279C205.667 266.09 230.867 248.634 257.955 214.753C271.661 197.604 280.982 187.601 288.183 182.305C295.061 177.25 300.073 176.382 306.438 175.291L306.424 175.205L306.438 175.291C312.061 174.324 318.729 173.177 328.699 169.054C338.666 164.932 351.932 157.837 370.757 144.977L370.838 144.922L370.787 144.839L370.699 144.698L370.646 144.61L370.561 144.668C351.761 157.513 338.521 164.593 328.581 168.704C318.643 172.814 312 173.957 306.387 174.923L306.385 174.923C299.991 176.023 294.928 176.896 287.976 182.007C280.739 187.327 271.391 197.356 257.673 214.517C230.628 248.346 205.478 265.764 182.421 274.931C159.363 284.098 138.392 285.015 119.69 285.831L119.668 285.832C100.276 286.681 83.5002 287.416 69.1654 296.948L69.0829 297.002L69.1349 297.087L69.222 297.228Z" fill="url(#paint14_linear_125_213)" stroke="url(#paint15_linear_125_213)" stroke-width="0.2"/>
<path d="M66.8603 298.865L66.8961 298.96L66.9887 298.922C77.9882 294.4 90.538 293.979 105.109 293.493C124.599 292.848 146.706 292.112 171.796 281.206C200.883 268.56 228.181 244.593 255.241 207.952C269.232 189.011 278.897 179.885 286.909 175.718C294.913 171.556 301.275 172.338 308.691 173.252L308.703 173.152L308.691 173.252L308.703 173.253C315.379 174.074 322.886 174.996 333.149 172.511C343.417 170.025 356.436 164.132 374.145 151.328L374.224 151.271L374.171 151.189L374.102 151.085L374.046 150.999L373.964 151.059C356.286 163.84 343.307 169.712 333.086 172.187C322.872 174.66 315.407 173.741 308.742 172.921L308.732 172.919L308.727 172.919C301.291 172.002 294.858 171.209 286.779 175.407C278.707 179.602 269 188.775 254.986 207.753C224.53 248.989 196.445 270.028 171.286 280.915C146.126 291.802 123.883 292.542 105.096 293.166C90.5344 293.646 77.9345 294.066 66.8721 298.617L66.7806 298.654L66.8159 298.748L66.8603 298.865Z" fill="url(#paint16_linear_125_213)" stroke="url(#paint17_linear_125_213)" stroke-width="0.2"/>
<defs>
<linearGradient id="paint0_linear_125_213" x1="83.6333" y1="190.683" x2="348.569" y2="185.741" gradientUnits="userSpaceOnUse">
<stop stop-color="#92FE9D"/>
<stop offset="1" stop-color="#00C9FF"/>
</linearGradient>
<linearGradient id="paint1_linear_125_213" x1="83.6333" y1="190.683" x2="348.569" y2="185.741" gradientUnits="userSpaceOnUse">
<stop stop-color="#92FE9D"/>
<stop offset="1" stop-color="#00C9FF"/>
</linearGradient>
<linearGradient id="paint2_linear_125_213" x1="81.3651" y1="194.962" x2="351.914" y2="189.916" gradientUnits="userSpaceOnUse">
<stop stop-color="#92FE9D"/>
<stop offset="1" stop-color="#00C9FF"/>
</linearGradient>
<linearGradient id="paint3_linear_125_213" x1="81.3651" y1="194.962" x2="351.914" y2="189.916" gradientUnits="userSpaceOnUse">
<stop stop-color="#92FE9D"/>
<stop offset="1" stop-color="#00C9FF"/>
</linearGradient>
<linearGradient id="paint4_linear_125_213" x1="79.1014" y1="199.241" x2="355.264" y2="194.089" gradientUnits="userSpaceOnUse">
<stop stop-color="#92FE9D"/>
<stop offset="1" stop-color="#00C9FF"/>
</linearGradient>
<linearGradient id="paint5_linear_125_213" x1="79.1014" y1="199.241" x2="355.264" y2="194.089" gradientUnits="userSpaceOnUse">
<stop stop-color="#92FE9D"/>
<stop offset="1" stop-color="#00C9FF"/>
</linearGradient>
<linearGradient id="paint6_linear_125_213" x1="76.8458" y1="203.511" x2="358.615" y2="198.256" gradientUnits="userSpaceOnUse">
<stop stop-color="#92FE9D"/>
<stop offset="1" stop-color="#00C9FF"/>
</linearGradient>
<linearGradient id="paint7_linear_125_213" x1="76.8458" y1="203.511" x2="358.615" y2="198.256" gradientUnits="userSpaceOnUse">
<stop stop-color="#92FE9D"/>
<stop offset="1" stop-color="#00C9FF"/>
</linearGradient>
<linearGradient id="paint8_linear_125_213" x1="74.5744" y1="207.788" x2="361.963" y2="202.427" gradientUnits="userSpaceOnUse">
<stop stop-color="#92FE9D"/>
<stop offset="1" stop-color="#00C9FF"/>
</linearGradient>
<linearGradient id="paint9_linear_125_213" x1="74.5744" y1="207.788" x2="361.963" y2="202.427" gradientUnits="userSpaceOnUse">
<stop stop-color="#92FE9D"/>
<stop offset="1" stop-color="#00C9FF"/>
</linearGradient>
<linearGradient id="paint10_linear_125_213" x1="72.321" y1="212.063" x2="365.317" y2="206.597" gradientUnits="userSpaceOnUse">
<stop stop-color="#92FE9D"/>
<stop offset="1" stop-color="#00C9FF"/>
</linearGradient>
<linearGradient id="paint11_linear_125_213" x1="72.321" y1="212.063" x2="365.317" y2="206.597" gradientUnits="userSpaceOnUse">
<stop stop-color="#92FE9D"/>
<stop offset="1" stop-color="#00C9FF"/>
</linearGradient>
<linearGradient id="paint12_linear_125_213" x1="70.0504" y1="216.341" x2="368.659" y2="210.771" gradientUnits="userSpaceOnUse">
<stop stop-color="#92FE9D"/>
<stop offset="1" stop-color="#00C9FF"/>
</linearGradient>
<linearGradient id="paint13_linear_125_213" x1="70.0504" y1="216.341" x2="368.659" y2="210.771" gradientUnits="userSpaceOnUse">
<stop stop-color="#92FE9D"/>
<stop offset="1" stop-color="#00C9FF"/>
</linearGradient>
<linearGradient id="paint14_linear_125_213" x1="67.7932" y1="220.611" x2="372.009" y2="214.936" gradientUnits="userSpaceOnUse">
<stop stop-color="#92FE9D"/>
<stop offset="1" stop-color="#00C9FF"/>
</linearGradient>
<linearGradient id="paint15_linear_125_213" x1="67.7932" y1="220.611" x2="372.009" y2="214.936" gradientUnits="userSpaceOnUse">
<stop stop-color="#92FE9D"/>
<stop offset="1" stop-color="#00C9FF"/>
</linearGradient>
<linearGradient id="paint16_linear_125_213" x1="65.5311" y1="224.884" x2="375.354" y2="219.105" gradientUnits="userSpaceOnUse">
<stop stop-color="#92FE9D"/>
<stop offset="1" stop-color="#00C9FF"/>
</linearGradient>
<linearGradient id="paint17_linear_125_213" x1="65.5311" y1="224.884" x2="375.354" y2="219.105" gradientUnits="userSpaceOnUse">
<stop stop-color="#92FE9D"/>
<stop offset="1" stop-color="#00C9FF"/>
</linearGradient>
</defs>
</svg>
