<svg width="18" height="19" viewBox="0 0 18 19" fill="none" xmlns="http://www.w3.org/2000/svg">
<path d="M14.5049 3.82757C13.3799 3.30372 12.1922 2.93209 10.9723 2.72217C10.8053 3.02569 10.6543 3.33798 10.5197 3.65771C9.22024 3.45855 7.89874 3.45855 6.59924 3.65771C6.46464 3.33801 6.31359 3.02573 6.14672 2.72217C4.92598 2.93387 3.73754 3.30638 2.61141 3.8303C0.375741 7.19444 -0.230314 10.475 0.0727136 13.709C1.38198 14.6929 2.84741 15.4411 4.40533 15.9212C4.75612 15.4413 5.06653 14.9323 5.33326 14.3994C4.82665 14.2069 4.33767 13.9695 3.872 13.6898C3.99456 13.5994 4.11442 13.5063 4.23025 13.4159C5.58524 14.064 7.06416 14.4 8.56151 14.4C10.0589 14.4 11.5378 14.064 12.8928 13.4159C13.0099 13.5131 13.1298 13.6063 13.251 13.6898C12.7845 13.97 12.2946 14.2078 11.7871 14.4008C12.0535 14.9334 12.3639 15.442 12.715 15.9212C14.2742 15.443 15.7408 14.6951 17.0503 13.7104C17.4059 9.95999 16.4429 6.70954 14.5049 3.82757ZM5.7171 11.7201C4.87266 11.7201 4.17503 10.9407 4.17503 9.9819C4.17503 9.02307 4.84842 8.23683 5.7144 8.23683C6.58039 8.23683 7.27264 9.02307 7.25782 9.9819C7.24301 10.9407 6.5777 11.7201 5.7171 11.7201ZM11.4059 11.7201C10.5601 11.7201 9.8652 10.9407 9.8652 9.9819C9.8652 9.02307 10.5386 8.23683 11.4059 8.23683C12.2733 8.23683 12.9601 9.02307 12.9453 9.9819C12.9305 10.9407 12.2665 11.7201 11.4059 11.7201Z" fill="white"/>
</svg>
