<svg width="18" height="19" viewBox="0 0 18 19" fill="none" xmlns="http://www.w3.org/2000/svg">
<path fill-rule="evenodd" clip-rule="evenodd" d="M8.70193 1.00244C3.9829 1.00244 0.15625 4.89362 0.15625 9.69401C0.15625 13.5342 2.60485 16.7923 6.0003 17.9416C6.42739 18.022 6.58419 17.753 6.58419 17.5234C6.58419 17.3162 6.57626 16.6315 6.57258 15.9052C4.19517 16.431 3.6935 14.8797 3.6935 14.8797C3.30477 13.8751 2.74466 13.6079 2.74466 13.6079C1.96931 13.0685 2.80311 13.0796 2.80311 13.0796C3.66124 13.1407 4.11309 13.9752 4.11309 13.9752C4.87528 15.304 6.11224 14.9199 6.59989 14.6978C6.67659 14.1362 6.89806 13.7524 7.14245 13.5355C5.24434 13.3158 3.24901 12.5705 3.24901 9.24005C3.24901 8.29112 3.58284 7.51576 4.1295 6.90707C4.04078 6.68801 3.74827 5.80413 4.21229 4.60691C4.21229 4.60691 4.9299 4.37331 6.56296 5.49784C7.24463 5.30526 7.97568 5.20869 8.70193 5.20538C9.42817 5.20869 10.1598 5.30526 10.8427 5.49784C12.4738 4.37331 13.1904 4.60691 13.1904 4.60691C13.6556 5.80413 13.3629 6.68801 13.2742 6.90707C13.8221 7.51576 14.1537 8.29112 14.1537 9.24005C14.1537 12.5784 12.1546 13.3134 10.2516 13.5286C10.5581 13.7984 10.8313 14.3273 10.8313 15.1382C10.8313 16.301 10.8214 17.237 10.8214 17.5234C10.8214 17.7547 10.9752 18.0258 11.4084 17.9404C14.802 16.7898 17.2475 13.5329 17.2475 9.69401C17.2475 4.89362 13.4214 1.00244 8.70193 1.00244Z" fill="white"/>
<path fill-rule="evenodd" clip-rule="evenodd" d="M3.39293 13.4817C3.37411 13.525 3.30732 13.5378 3.24646 13.5082C3.18448 13.4798 3.14967 13.421 3.16977 13.3776C3.18816 13.3332 3.2551 13.3209 3.31694 13.3504C3.37906 13.3789 3.41444 13.4384 3.39293 13.4817Z" fill="white"/>
<path fill-rule="evenodd" clip-rule="evenodd" d="M3.73907 13.8743C3.69832 13.9128 3.61864 13.8949 3.56459 13.8342C3.50869 13.7736 3.49822 13.6926 3.53954 13.6536C3.58157 13.6151 3.65883 13.6331 3.71487 13.6937C3.77077 13.755 3.78167 13.8355 3.73907 13.8743Z" fill="white"/>
<path fill-rule="evenodd" clip-rule="evenodd" d="M4.07601 14.3749C4.02365 14.4119 3.93804 14.3772 3.88511 14.3C3.83275 14.2227 3.83275 14.13 3.88624 14.0928C3.93931 14.0557 4.02365 14.0891 4.07729 14.1658C4.12951 14.2443 4.12951 14.3371 4.07601 14.3749Z" fill="white"/>
<path fill-rule="evenodd" clip-rule="evenodd" d="M4.53763 14.8586C4.49079 14.9111 4.39102 14.897 4.318 14.8253C4.24328 14.7552 4.22248 14.6558 4.26946 14.6032C4.31687 14.5505 4.4172 14.5654 4.49079 14.6365C4.56494 14.7064 4.58758 14.8066 4.53763 14.8586Z" fill="white"/>
<path fill-rule="evenodd" clip-rule="evenodd" d="M5.17444 15.1394C5.15377 15.2074 5.05769 15.2384 4.96089 15.2095C4.86424 15.1797 4.80098 15.0999 4.82051 15.0311C4.84061 14.9626 4.93712 14.9304 5.03462 14.9613C5.13113 14.991 5.19453 15.0701 5.17444 15.1394Z" fill="white"/>
<path fill-rule="evenodd" clip-rule="evenodd" d="M5.87379 15.1915C5.8762 15.2631 5.79412 15.3226 5.69251 15.3237C5.59034 15.3262 5.5077 15.2682 5.50657 15.1977C5.50657 15.1253 5.5868 15.0664 5.68898 15.0647C5.79058 15.0626 5.87379 15.1202 5.87379 15.1915Z" fill="white"/>
<path fill-rule="evenodd" clip-rule="evenodd" d="M6.52461 15.0788C6.53678 15.1487 6.46616 15.2205 6.36527 15.2395C6.26607 15.2581 6.17422 15.2149 6.16163 15.1455C6.14932 15.0739 6.22121 15.002 6.32026 14.9835C6.42131 14.9656 6.51173 15.0077 6.52461 15.0788Z" fill="white"/>
</svg>
