<svg width="40" height="25" viewBox="0 0 40 25" fill="none" xmlns="http://www.w3.org/2000/svg">
<g id="Group">
<path id="Vector" d="M28.1452 0.913818C24.9928 0.913818 22.1254 2.15309 20 4.16613C17.8744 2.15248 15.0075 0.913818 11.8553 0.913818C5.31821 0.913818 0 6.23202 0 12.7693C0 19.3057 5.31821 24.6242 11.8552 24.6242C15.0075 24.6242 17.8743 23.3849 20 21.3716C22.1253 23.3855 24.9928 24.6242 28.1451 24.6242C34.6815 24.6242 40 19.3057 40 12.7693C40 6.23202 34.6816 0.913818 28.1452 0.913818ZM11.8552 23.5595C5.90482 23.5595 1.06461 18.7182 1.06461 12.7693C1.06461 6.81952 5.90535 1.97852 11.8552 1.97852C14.7205 1.97852 17.322 3.10864 19.2554 4.93717C17.4116 7.02751 16.2892 9.76964 16.2892 12.7694C16.2892 15.7699 17.4115 18.5115 19.2554 20.6023C17.322 22.4294 14.7205 23.5595 11.8552 23.5595ZM17.3538 12.7693C17.3538 10.0708 18.3568 7.60603 20 5.71225C21.643 7.60603 22.6462 10.0709 22.6462 12.7693C22.6462 15.4673 21.643 17.9323 20 19.8255C18.3568 17.9323 17.3538 15.4672 17.3538 12.7693ZM28.1452 23.5595C25.2798 23.5595 22.678 22.4294 20.7447 20.6011C22.5885 18.5103 23.7109 15.7687 23.7109 12.7682C23.7109 9.76823 22.5885 7.02637 20.7447 4.93602C22.6784 3.1075 25.2797 1.97737 28.1452 1.97737C34.0952 1.97737 38.9354 6.8182 38.9354 12.7682C38.9354 18.7173 34.0952 23.5595 28.1452 23.5595ZM2.39649 9.68688L2.02007 9.31055L8.61528 2.71508L8.99161 3.0915L2.39649 9.68688ZM1.93063 12.67L1.5543 12.2937L11.2935 2.55396L11.6698 2.93029L1.93063 12.67ZM16.1769 11.9193L6.43769 21.6596L6.06137 21.2832L15.8004 11.5432L16.1769 11.9193ZM16.1769 14.8419L8.55882 22.4611L8.18249 22.0848L15.801 14.4655L16.1769 14.8419ZM10.2177 22.7194L16.4004 16.536L16.7768 16.9123L10.594 23.0958L10.2177 22.7194ZM12.7014 22.9425L17.34 18.3029L17.7163 18.6792L13.0778 23.3189L12.7014 22.9425ZM13.8758 3.23256L1.97091 15.1376L1.59458 14.7613L13.4995 2.85615L13.8758 3.23256ZM15.8639 3.7095L2.66253 16.9124L2.2862 16.5361L15.4881 3.33318L15.8639 3.7095ZM17.8495 4.49734L3.51695 18.8296L3.14062 18.4533L17.473 4.12101L17.8495 4.49734ZM16.4404 8.74364L4.7695 20.4135L4.39317 20.0372L16.0636 8.36678L16.4404 8.74364ZM37.7106 9.68688L31.1155 3.09141L31.4918 2.71499L38.087 9.31046L37.7106 9.68688ZM38.1764 12.67L28.4373 2.93073L28.8137 2.5544L38.5527 12.2941L38.1764 12.67ZM24.3055 11.5432L34.0452 21.2832L33.6689 21.6595L23.9292 11.9193L24.3055 11.5432ZM24.3055 14.4655L31.9237 22.0848L31.5474 22.4611L23.9292 14.8419L24.3055 14.4655ZM23.7056 16.5361L29.8886 22.7195L29.5123 23.0959L23.3293 16.9124L23.7056 16.5361ZM22.7663 18.303L27.4048 22.9426L27.0285 23.3189L22.3905 18.6793L22.7663 18.303ZM26.6074 2.85615L38.5117 14.7613L38.1353 15.1376L26.2311 3.23256L26.6074 2.85615ZM24.6185 3.33318L37.8208 16.5361L37.4445 16.9124L24.2426 3.7095L24.6185 3.33318ZM22.6333 4.12092L36.9657 18.4533L36.5894 18.8296L22.2574 4.49734L22.6333 4.12092ZM24.0431 8.36678L35.7139 20.0372L35.3376 20.4135L23.6667 8.74364L24.0431 8.36678ZM20.6428 7.68967H19.0685V7.15732H20.6428V7.68967ZM19.2127 17.6703H20.7874V18.2026H19.2127V17.6703ZM21.7302 9.5751H18.2699V9.04275H21.7302V9.5751ZM22.0629 11.2828H17.661V10.7505H22.0629V11.2828ZM22.2179 12.5028V13.0354H17.6553V12.5028H22.2179ZM17.8819 14.2425H21.9886V14.7748H17.8819V14.2425ZM18.2699 15.9402H21.3975V16.4726H18.2699V15.9402Z" fill="white" fill-opacity="0.15"/>
</g>
</svg>
