<svg width="24" height="25" viewBox="0 0 24 25" fill="none" xmlns="http://www.w3.org/2000/svg">
<path id="Vector" d="M21 8.33333H19.5V5.95238C19.5 2.66667 16.14 0 12 0C7.86 0 4.5 2.66667 4.5 5.95238V8.33333H3C1.35 8.33333 0 9.40476 0 10.7143V22.619C0 23.9286 1.35 25 3 25H21C22.65 25 24 23.9286 24 22.619V10.7143C24 9.40476 22.65 8.33333 21 8.33333ZM12 19.0476C10.35 19.0476 9 17.9762 9 16.6667C9 15.3571 10.35 14.2857 12 14.2857C13.65 14.2857 15 15.3571 15 16.6667C15 17.9762 13.65 19.0476 12 19.0476ZM16.65 8.33333H7.35V5.95238C7.35 3.91667 9.435 2.2619 12 2.2619C14.565 2.2619 16.65 3.91667 16.65 5.95238V8.33333Z" fill="#16E3FE"/>
</svg>
