<svg width="18" height="19" viewBox="0 0 18 19" fill="none" xmlns="http://www.w3.org/2000/svg">
<path fill-rule="evenodd" clip-rule="evenodd" d="M0.246094 9.5C0.246094 4.7716 4.07922 0.938477 8.80762 0.938477C13.536 0.938477 17.3691 4.7716 17.3691 9.5C17.3691 14.2284 13.536 18.0615 8.80762 18.0615C4.07922 18.0615 0.246094 14.2284 0.246094 9.5ZM8.5512 7.89739L8.56917 8.19364L8.26974 8.15736C7.17981 8.01831 6.22762 7.54673 5.41916 6.75472L5.02391 6.36174L4.9221 6.65194C4.70651 7.29885 4.84425 7.98203 5.2934 8.44152C5.53294 8.69545 5.47905 8.73172 5.06583 8.58058C4.9221 8.53221 4.79634 8.49593 4.78437 8.51407C4.74245 8.55639 4.88617 9.10657 4.99996 9.32422C5.15566 9.62651 5.47306 9.92276 5.8204 10.0981L6.11384 10.2371L5.7665 10.2432C5.43114 10.2432 5.41916 10.2492 5.45509 10.3762C5.57486 10.7692 6.04796 11.1863 6.57496 11.3677L6.94626 11.4947L6.62287 11.6882C6.14378 11.9663 5.58085 12.1235 5.01792 12.1356C4.74844 12.1416 4.52686 12.1658 4.52686 12.1839C4.52686 12.2444 5.25747 12.5829 5.68266 12.716C6.95823 13.1089 8.47335 12.9397 9.61119 12.2686C10.4196 11.7909 11.2281 10.8417 11.6054 9.92276C11.809 9.43304 12.0126 8.53825 12.0126 8.109C12.0126 7.83089 12.0306 7.79461 12.3659 7.46209C12.5636 7.26862 12.7492 7.05701 12.7851 6.99656C12.845 6.88168 12.839 6.88168 12.5336 6.98446C12.0246 7.16584 11.9527 7.14166 12.2043 6.86959C12.3899 6.67612 12.6115 6.32546 12.6115 6.22268C12.6115 6.20455 12.5217 6.23477 12.4198 6.28919C12.312 6.34965 12.0725 6.44033 11.8928 6.49475L11.5695 6.59753L11.276 6.39801C11.1143 6.28919 10.8868 6.16827 10.767 6.13199C10.4616 6.04735 9.99446 6.05944 9.71898 6.15618C8.9704 6.42824 8.4973 7.12956 8.5512 7.89739Z" fill="white"/>
</svg>
