<svg width="22" height="19" viewBox="0 0 22 19" fill="none" xmlns="http://www.w3.org/2000/svg">
<path d="M12.1432 5.21924H20.7047C21.3468 5.21924 21.7749 4.79116 21.7749 4.14905C21.7749 3.50693 21.3468 3.07886 20.7047 3.07886H12.1432C11.5011 3.07886 11.073 3.50693 11.073 4.14905C11.073 4.79116 11.5011 5.21924 12.1432 5.21924ZM20.7047 7.35962H12.1432C11.5011 7.35962 11.073 7.7877 11.073 8.42981C11.073 9.07193 11.5011 9.5 12.1432 9.5H20.7047C21.3468 9.5 21.7749 9.07193 21.7749 8.42981C21.7749 7.7877 21.3468 7.35962 20.7047 7.35962ZM1.44128 9.5H7.86243C8.50454 9.5 8.93262 9.07193 8.93262 8.42981V2.00867C8.93262 1.36655 8.50454 0.938477 7.86243 0.938477H1.44128C0.79917 0.938477 0.371094 1.36655 0.371094 2.00867V8.42981C0.371094 9.07193 0.79917 9.5 1.44128 9.5ZM20.7047 11.6404H1.44128C0.79917 11.6404 0.371094 12.0685 0.371094 12.7106C0.371094 13.3527 0.79917 13.7808 1.44128 13.7808H20.7047C21.3468 13.7808 21.7749 13.3527 21.7749 12.7106C21.7749 12.0685 21.3468 11.6404 20.7047 11.6404ZM12.1432 15.9211H1.44128C0.79917 15.9211 0.371094 16.3492 0.371094 16.9913C0.371094 17.6335 0.79917 18.0615 1.44128 18.0615H12.1432C12.7853 18.0615 13.2134 17.6335 13.2134 16.9913C13.2134 16.3492 12.7853 15.9211 12.1432 15.9211Z" fill="white"/>
</svg>
