<svg width="27" height="27" viewBox="0 0 27 27" fill="none" xmlns="http://www.w3.org/2000/svg">
<g id="Frame 158">
<g id="layer1">
<path id="path756" d="M13.6153 0.388885C11.8903 0.388885 10.1821 0.728663 8.58831 1.38882C6.99454 2.04898 5.54641 3.01659 4.32659 4.23641C3.10678 5.45622 2.13917 6.90436 1.47901 8.49812C0.818847 10.0919 0.479065 11.8001 0.479065 13.5252C0.479065 15.2502 0.818847 16.9584 1.47901 18.5522C2.13917 20.146 3.10678 21.5941 4.32659 22.8139C5.54641 24.0337 6.99454 25.0013 8.58831 25.6615C10.1821 26.3217 11.8903 26.6614 13.6153 26.6614C15.3404 26.6614 17.0486 26.3217 18.6424 25.6615C20.2361 25.0013 21.6843 24.0337 22.9041 22.8139C24.1239 21.5941 25.0915 20.146 25.7517 18.5522C26.4118 16.9584 26.7516 15.2502 26.7516 13.5252C26.7516 11.8001 26.4118 10.0919 25.7517 8.49813C25.0915 6.90436 24.1239 5.45622 22.9041 4.23641C21.6843 3.01659 20.2361 2.04898 18.6424 1.38882C17.0486 0.728663 15.3404 0.388885 13.6153 0.388885ZM15.1362 5.40197C15.1675 5.9128 15.2055 7.17804 15.2444 7.71129C15.9985 7.80576 17.5759 7.69848 18.9409 7.75624C17.8478 10.0911 17.2256 10.4269 13.2103 10.2105C12.2798 10.1327 11.3206 11.1376 12.6359 11.6837C14.3627 12.2864 15.6865 12.1475 17.2045 12.7898C18.3548 13.5302 19.2525 14.0391 19.1168 15.7172C18.981 17.3954 18.369 17.9774 17.0096 18.6386C15.6502 19.2998 15.14 19.1269 15.1226 19.7034C15.008 20.165 14.8941 20.6361 14.3681 21.0088C13.8676 21.4623 12.9469 21.4467 12.577 21.3427C12.6113 20.5996 12.5805 20.408 12.6024 19.2517C10.9952 19.3431 10.1975 19.0302 9.44927 18.4553C8.83052 17.9441 8.34025 17.0189 8.58948 16.3296C9.71601 16.2772 11.6831 16.4425 13.0105 16.6621C14.3139 16.9267 15.2117 16.5007 15.1702 15.8143C15.1056 15.2683 13.7258 15.2348 13.133 15.0598C12.1733 14.8112 11.5308 14.7483 10.1611 14.0594C8.72212 13.2144 8.08195 12.5755 8.38878 10.7678C8.69562 8.96009 10.0202 8.42099 10.8506 8.10282C11.837 7.76731 12.2033 7.78309 12.6483 7.74266C12.7216 6.81018 12.8504 6.49697 13.3745 6.0294C13.6996 5.7281 14.3311 5.40179 15.1362 5.40197Z" fill="white" fill-opacity="0.35"/>
</g>
</g>
</svg>
