<svg width="26" height="27" viewBox="0 0 26 27" fill="none" xmlns="http://www.w3.org/2000/svg">
<g id="Frame 160">
<g id="layer1">
<path id="path353" d="M8.62185 1.46603L11.2371 7.9796L13.0585 12.322L17.9502 1.80885C14.8876 0.170504 11.8046 0.726391 8.62185 1.46603ZM19.0878 3.18012C17.6783 5.6059 16.7227 8.32277 15.4756 10.8364C15.172 11.4482 14.1179 12.9955 14.2889 13.6689C14.4491 14.2994 16.1583 14.8212 16.6988 15.0928C19.1975 16.3477 21.8659 18.1736 24.5482 18.9498C27.2099 13.3006 25.104 5.70951 19.0878 3.18012ZM22.5006 19.864L15.4474 16.3498L12.2052 14.6489L10.7821 11.4078L7.71178 3.86577C5.9586 4.4664 4.33644 5.7591 3.17094 7.17969C2.02745 8.57347 1.20824 10.2235 0.787255 11.9792C-0.323973 16.6134 1.58853 21.7071 5.55033 24.3756C11.0747 28.0965 19.7948 26.3579 22.5006 19.864Z" fill="white" fill-opacity="0.35"/>
</g>
</g>
</svg>
