<svg width="20" height="25" viewBox="0 0 20 25" fill="none" xmlns="http://www.w3.org/2000/svg">
<g id="Frame 159">
<g id="layer1">
<path id="path316" d="M16.2442 0.986542L17.4269 2.33049C16.531 2.7483 15.6797 3.85496 14.954 4.52979C13.5637 5.82256 11.9489 7.02325 10.707 8.45891H10.6533C9.93857 7.44433 8.83609 6.55292 7.96455 5.66344C7.76011 5.4548 7.30929 4.81594 6.9977 4.81444C6.80772 4.81363 6.59032 5.07108 6.46012 5.18881C6.06155 5.54926 5.68325 5.93325 5.27743 6.28579C3.5614 7.7765 1.8336 9.32678 0.224121 10.9318V10.9855C0.478345 11.2398 1.08808 12.1032 1.46057 12.1033C1.79575 12.1035 2.34619 11.3994 2.5895 11.1852C3.62054 10.2775 4.61631 9.32834 5.65374 8.42795C5.93619 8.18281 6.60984 7.3223 6.99561 7.3322C7.27725 7.33939 7.7692 8.04771 7.96536 8.24388L10.6533 10.9318H10.707C12.744 9.27296 14.5645 7.30988 16.513 5.54684C17.0394 5.07049 17.5455 4.57177 18.072 4.09537C18.2277 3.95452 18.4425 3.62982 18.6633 3.60085C19.0188 3.55419 19.6124 4.43964 19.8998 4.64209V0.986542H16.2442ZM16.0292 9.56251C15.4248 9.70228 15.3303 10.2384 15.3303 10.7705V14.2648V21.1458C15.3303 21.836 15.0749 23.1666 15.5665 23.7161C15.8335 24.0145 16.2009 23.995 16.5667 23.995C17.4037 23.995 18.4395 24.1611 19.2547 23.9738C19.8327 23.841 19.8998 23.3032 19.8998 22.8123V19.318V12.3832C19.8998 11.7086 20.1611 10.3345 19.6726 9.80867C19.3991 9.51412 19.0326 9.53407 18.6633 9.53407C17.8392 9.53407 16.8323 9.37683 16.0292 9.56251ZM8.87926 12.8385C8.51692 12.907 8.21754 13.1361 8.14491 13.5122C7.93531 14.5972 8.12663 15.9004 8.12663 17.0064V21.7909C8.12663 22.3252 7.95041 23.2328 8.30908 23.6701C8.57293 23.9917 8.92736 23.995 9.30932 23.995C10.1603 23.995 11.2241 24.1674 12.051 23.9663C12.5867 23.8361 12.6959 23.3412 12.6961 22.8661V19.5868V14.9099C12.6961 14.3651 12.856 13.5341 12.4525 13.0998C12.1931 12.8207 11.813 12.8135 11.4597 12.8133C10.6351 12.8129 9.68972 12.6853 8.87926 12.8385ZM2.15947 16.8257C1.73747 16.9483 1.59447 17.3077 1.53733 17.7053C1.41782 18.5375 1.51432 19.4452 1.51432 20.2857V22.436C1.51432 22.7983 1.4805 23.2416 1.67608 23.5647C1.82972 23.8185 2.08195 23.9658 2.37446 23.99C3.06413 24.0468 3.77895 23.995 4.47104 23.995C4.80832 23.995 5.22291 24.0586 5.54621 23.9491C5.90091 23.8289 6.10288 23.4962 6.13256 23.1348C6.20653 22.2333 6.13756 21.2979 6.13756 20.3932V18.2429C6.13756 17.8826 6.18368 17.4873 5.97655 17.1699C5.77582 16.8622 5.45912 16.7931 5.11614 16.7915C4.2273 16.7871 3.01257 16.5779 2.15947 16.8257Z" fill="white" fill-opacity="0.35"/>
</g>
</g>
</svg>
