<svg width="160" height="18" viewBox="0 0 160 18" fill="none" xmlns="http://www.w3.org/2000/svg">
<g id="path302 2" clip-path="url(#clip0_457_7189)">
<path id="path302" d="M9.16052 17.6327C9.09511 17.5564 8.78554 16.9233 8.47258 16.2258C7.55351 14.1774 6.27769 11.3674 5.91751 10.5982C5.73379 10.2058 5.3859 9.44894 5.14441 8.91617C4.90292 8.38341 4.68287 7.94648 4.6554 7.94522C4.60357 7.94282 4.51934 8.46 3.90055 12.5797C3.26852 16.7876 3.20283 17.1719 3.08386 17.3571C2.96969 17.5348 2.9488 17.5369 1.54304 17.5156L0.117956 17.494L0.0243818 17.2958C-0.053601 17.1307 0.0370121 16.5233 0.568312 13.6504C0.91894 11.7543 1.31356 9.53465 1.44526 8.71772C1.57695 7.90079 1.97445 5.67129 2.32859 3.76327C3.05466 -0.148605 3.01335 -0.0352795 3.68612 0.039371C3.87941 0.0608204 4.08558 0.126917 4.14427 0.186257C4.20296 0.245599 4.52175 0.88267 4.85268 1.60197C5.18361 2.32127 5.84113 3.69449 6.31383 4.65355C6.78654 5.61262 7.31294 6.71833 7.48362 7.11067C8.02407 8.35303 9.71352 11.836 9.78321 11.8515C9.82 11.8597 10.1915 11.1352 10.6087 10.2415C11.0259 9.34783 11.7477 7.81412 12.2127 6.83326C12.6778 5.85239 13.5633 3.97983 14.1807 2.67201C14.7981 1.36418 15.3774 0.231732 15.4681 0.155443C15.7099 -0.0478589 16.2231 -0.0270188 16.4442 0.195072C16.5936 0.345179 16.6813 0.712179 16.9983 2.51348C17.2055 3.69052 17.4501 5.11723 17.5419 5.68396C17.6336 6.25068 17.7969 7.19588 17.9047 7.7844C19.504 16.5171 19.6168 17.1902 19.5096 17.3577C19.4332 17.477 19.2406 17.4967 17.9654 17.5156C16.5498 17.5365 16.5059 17.5324 16.4166 17.3682C16.3334 17.215 15.8335 14.2715 15.3343 10.9945C14.9308 8.34588 14.8612 7.94292 14.8077 7.94292C14.7773 7.94292 14.579 8.34418 14.367 8.83461C14.0021 9.67843 12.9398 12.0308 11.6914 14.7594C11.3822 15.4351 10.9724 16.3447 10.7807 16.7806C10.589 17.2166 10.3983 17.6178 10.3568 17.6723C10.2346 17.8331 9.30593 17.8023 9.16052 17.6327ZM28.3367 17.6482C26.4354 17.2465 25.1498 16.6034 23.9204 15.4389C22.8651 14.4393 22.0527 13.272 21.6214 12.1359C21.3079 11.3101 21.0902 10.0357 21.0906 9.02876C21.0914 6.88534 21.6476 5.21596 22.9147 3.55392C25.4815 0.187158 30.2386 -0.904074 34.0936 0.989634C35.0848 1.47656 35.5323 1.78625 36.3066 2.52106C39.2688 5.33213 39.9516 9.66755 37.9948 13.2395C37.1724 14.7407 35.6958 16.1341 34.0936 16.9211C33.5923 17.1673 32.5923 17.4805 31.7798 17.6457C31.0044 17.8033 29.0777 17.8049 28.3367 17.6482ZM31.6456 14.3557C32.5771 14.1016 33.2767 13.6951 34.0174 12.9777C35.3675 11.67 35.9808 10.0165 35.7497 8.30707C35.2164 4.36214 31.0939 2.19536 27.4598 3.95C26.7471 4.29412 25.773 5.17247 25.283 5.91288C24.5833 6.97007 24.2419 8.39629 24.3971 9.61426C24.8366 13.0652 28.2328 15.2867 31.6456 14.3557ZM81.6613 17.6757C81.6158 17.6193 81.0461 16.3962 80.3951 14.9576C79.7442 13.519 79.1067 12.128 78.9786 11.8664C78.5981 11.0899 77.2806 8.23178 77.234 8.08164C77.1119 7.68841 77.01 8.14564 76.6821 10.5586C76.608 11.1035 76.3883 12.5659 76.1939 13.8083C75.9994 15.0507 75.7992 16.3348 75.7489 16.6617C75.6099 17.5662 75.6613 17.541 74.0038 17.5156C72.7869 17.4969 72.5859 17.476 72.5118 17.3602C72.4167 17.2116 72.4268 17.1413 72.9806 14.0857C73.1703 13.0395 73.3866 11.7911 73.4614 11.3116C73.5362 10.832 73.7388 9.67282 73.9117 8.73555C74.4795 5.6556 74.9455 3.09054 75.1923 1.68565C75.3461 0.810224 75.4811 0.257743 75.5604 0.179674C75.7265 0.0162157 76.4361 0.0131985 76.5984 0.17527C76.7299 0.306612 78.1709 3.30736 80.9755 9.29039C81.374 10.1405 81.8284 11.0857 81.9853 11.3908L82.2706 11.9457L82.6855 11.0738C82.9137 10.5942 83.1849 10.0057 83.2883 9.76596C83.3917 9.52619 83.7726 8.72367 84.1348 7.98257C84.8328 6.5546 86.5439 2.94082 87.3061 1.28494C87.557 0.740012 87.8376 0.231746 87.9297 0.155457C88.1489 -0.0260992 88.6547 -0.0238269 88.885 0.159742C89.0884 0.32185 89.1055 0.397672 89.6473 3.5439C90.1501 6.46391 91.2294 12.514 91.6976 15.0369C92.0554 16.9653 92.0831 17.1946 91.9773 17.3553C91.863 17.5289 91.8234 17.5336 90.4728 17.5324C89.71 17.5318 89.0347 17.4993 88.9721 17.4604C88.848 17.383 88.87 17.505 87.954 11.8268C87.62 9.75604 87.3361 8.02615 87.3231 7.98256C87.2922 7.87822 87.0162 8.41421 86.5476 9.48854C86.3385 9.96807 85.6877 11.4126 85.1014 12.6986C84.5151 13.9847 83.804 15.554 83.5212 16.1862C82.7609 17.8852 82.8861 17.728 82.272 17.7549C81.9124 17.7707 81.7176 17.7454 81.6613 17.6757ZM101.021 17.6892C100.295 17.5689 99.0684 17.1922 98.5061 16.9165C96.4249 15.8962 94.7541 13.9965 94.0096 11.8038C93.6392 10.7129 93.5319 9.93424 93.576 8.65627C93.6238 7.26629 93.8539 6.29521 94.3992 5.18218C95.9551 2.00606 98.9967 0.0867366 102.492 0.0755536C104.292 0.0698018 105.673 0.447403 107.375 1.41087C107.943 1.73241 108.096 1.8541 108.838 2.57547C110.054 3.75698 110.858 5.15582 111.323 6.89502C111.497 7.54322 111.531 7.8542 111.539 8.85443C111.551 10.1761 111.459 10.7791 111.086 11.8267C109.972 14.9616 107.461 17.0828 104.182 17.6596C103.53 17.7745 101.643 17.7922 101.021 17.6892ZM103.981 14.4029C104.247 14.3366 104.77 14.135 105.143 13.9549C106.401 13.3489 107.62 11.9178 108.07 10.5189C108.333 9.70224 108.327 8.20974 108.057 7.42772C107.336 5.33362 105.791 3.89363 103.796 3.45671C102.904 3.26141 101.613 3.33264 100.728 3.62594C98.4212 4.39092 96.826 6.57941 96.8307 8.97333C96.8331 10.2536 97.2576 11.3962 98.134 12.4819C99.072 13.644 100.335 14.3264 101.968 14.5537C102.381 14.6111 103.475 14.5292 103.981 14.4029ZM127.462 16.9193C127.017 16.4507 126.144 15.5144 125.52 14.8387C124.897 14.163 122.929 12.032 121.149 10.1033L117.91 6.59635L117.87 11.9339C117.837 16.2976 117.81 17.2954 117.719 17.4026C117.624 17.5152 117.413 17.5336 116.214 17.5336C114.864 17.5336 114.816 17.5279 114.694 17.3574C114.583 17.2007 114.569 16.258 114.569 8.80595C114.569 -0.727599 114.503 0.109434 115.26 0.0377825L115.66 0L116.992 1.37563C117.725 2.13223 118.987 3.44679 119.795 4.29687C125.019 9.78644 126.049 10.8522 126.103 10.8214C126.136 10.8025 126.163 8.47194 126.163 5.64244C126.163 0.637286 126.167 0.495659 126.319 0.415832C126.408 0.368787 127.041 0.33378 127.803 0.33378C128.903 0.33378 129.153 0.35517 129.257 0.458334C129.371 0.570017 129.384 1.46122 129.384 9.08202C129.384 15.5868 129.361 17.6035 129.287 17.6763C129.234 17.7286 128.984 17.7714 128.731 17.7714H128.271L127.462 16.9193ZM42.2381 17.3887C42.1159 17.2557 42.1049 16.5572 42.1049 8.9649C42.1049 1.60022 42.1187 0.666651 42.2302 0.509942L42.3556 0.33378H46.4042C50.1676 0.33378 50.4964 0.344776 51.0725 0.489808C52.609 0.876673 53.9905 1.95061 54.6442 3.26647C55.6855 5.36233 55.2885 7.65185 53.5982 9.29941C53.0709 9.81337 51.9523 10.5586 51.7081 10.5586C51.6518 10.5586 51.6057 10.5945 51.6057 10.6385C51.6057 10.6825 51.9629 11.3691 52.3994 12.1643C55.1456 17.1669 55.1523 17.1811 54.8908 17.4385C54.8222 17.506 54.3347 17.5336 53.2098 17.5336C51.8462 17.5336 51.6101 17.5157 51.515 17.4048C51.4542 17.3339 50.6798 15.8448 49.7941 14.0956L48.1838 10.9152L46.7949 10.8935L45.406 10.8719V14.0782C45.406 16.8873 45.3904 17.2999 45.2795 17.409C45.1743 17.5127 44.9192 17.5336 43.7622 17.5336C42.5171 17.5336 42.3574 17.5184 42.2381 17.3887ZM50.4565 7.95376C51.2783 7.58799 51.8401 6.75298 51.9098 5.79346C51.942 5.35002 51.9164 5.19819 51.7487 4.83742C51.4836 4.26751 51.1058 3.85757 50.6065 3.59824L50.1967 3.38536L47.8014 3.36122L45.406 3.33707V5.76434V8.19162L47.7209 8.16636C49.9537 8.14201 50.0506 8.13444 50.4565 7.95376ZM58.3334 17.3574C58.2219 17.2008 58.208 16.2755 58.208 8.99011C58.208 0.743111 58.2135 0.57076 58.4818 0.394441C58.5305 0.362414 60.947 0.335662 63.8518 0.334994C68.867 0.333796 69.1399 0.341074 69.2665 0.478728C69.3785 0.600579 69.3997 0.820912 69.3997 1.86132C69.3997 3.05041 69.3927 3.1038 69.2208 3.22234C69.065 3.32975 68.554 3.34573 65.2755 3.34573H61.5092V5.32728V7.30883H64.6384C67.6823 7.30883 67.7735 7.31332 67.9798 7.4731L68.192 7.63738V8.8479C68.192 9.91997 68.1751 10.0734 68.0447 10.1896C67.9129 10.307 67.5625 10.3208 64.7033 10.3208H61.5092V12.4608V14.6009H65.3212C68.912 14.6009 69.1409 14.6093 69.2665 14.7459C69.3784 14.8676 69.3997 15.0873 69.3997 16.1171C69.3997 16.9652 69.3699 17.3727 69.3031 17.4385C69.2299 17.5106 67.9049 17.5336 63.8326 17.5336H58.4587L58.3334 17.3574ZM132.527 17.3803C132.471 17.2774 132.444 14.4896 132.444 8.90378V0.580554L132.622 0.457166C132.78 0.348553 133.43 0.333778 138.052 0.333778C142.717 0.333778 143.316 0.347649 143.428 0.458332C143.532 0.561034 143.555 0.802229 143.555 1.83313C143.555 2.94369 143.538 3.09803 143.407 3.21455C143.275 3.33267 142.886 3.34573 139.502 3.34573H135.745V5.32728V7.30882L138.824 7.31002C141.144 7.31092 141.954 7.33591 142.105 7.41134C142.306 7.51107 142.307 7.51678 142.329 8.76891C142.348 9.85561 142.333 10.0463 142.216 10.1736C142.088 10.3123 141.897 10.3208 138.913 10.3208H135.745V12.4609V14.6009H139.516C143.068 14.6009 143.296 14.6094 143.421 14.7459C143.533 14.8676 143.555 15.0873 143.555 16.1171C143.555 16.9652 143.525 17.3727 143.458 17.4385C143.385 17.5106 142.059 17.5336 137.986 17.5336C132.754 17.5336 132.608 17.5295 132.527 17.3803ZM150.965 17.3803C150.911 17.2805 150.882 15.8466 150.882 13.2717V9.31644L149.823 7.77762C149.241 6.93127 148.106 5.2936 147.3 4.13836C146.495 2.98312 145.667 1.79302 145.46 1.49369C145.054 0.9057 145.002 0.6697 145.232 0.464969C145.358 0.352785 145.596 0.333794 146.88 0.333794H148.38L148.696 0.749916C149.064 1.23589 151.169 4.22785 151.928 5.34451C152.216 5.76772 152.487 6.10387 152.529 6.09152C152.61 6.06798 152.927 5.63271 155.233 2.37131L156.646 0.373423L158.175 0.351944C159.839 0.328577 160 0.363508 160 0.748581C160 0.95608 159.712 1.38201 155.965 6.71426L154.183 9.25054V13.2609C154.183 17.0454 154.174 17.2786 154.036 17.4024C153.91 17.514 153.677 17.5336 152.468 17.5336C151.147 17.5336 151.043 17.523 150.965 17.3803Z" fill="white"/>
</g>
<defs>
<clipPath id="clip0_457_7189">
<rect width="160" height="17.7778" fill="white"/>
</clipPath>
</defs>
</svg>
