<svg width="169" height="30" viewBox="0 0 169 30" fill="none" xmlns="http://www.w3.org/2000/svg">
<path d="M70.3218 12.4058C71.1018 12.4058 71.7978 12.5678 72.4098 12.8918C73.0338 13.2158 73.5198 13.6958 73.8678 14.3318C74.2278 14.9678 74.4078 15.7358 74.4078 16.6358V22.4858H72.3738V16.9418C72.3738 16.0538 72.1518 15.3758 71.7078 14.9078C71.2638 14.4278 70.6578 14.1878 69.8898 14.1878C69.1218 14.1878 68.5098 14.4278 68.0538 14.9078C67.6098 15.3758 67.3878 16.0538 67.3878 16.9418V22.4858H65.3538V16.9418C65.3538 16.0538 65.1318 15.3758 64.6878 14.9078C64.2438 14.4278 63.6378 14.1878 62.8698 14.1878C62.1018 14.1878 61.4898 14.4278 61.0338 14.9078C60.5898 15.3758 60.3678 16.0538 60.3678 16.9418V22.4858H58.3158V12.5678H60.3678V13.7018C60.7038 13.2938 61.1298 12.9758 61.6458 12.7478C62.1618 12.5198 62.7138 12.4058 63.3018 12.4058C64.0938 12.4058 64.8018 12.5738 65.4258 12.9098C66.0498 13.2458 66.5298 13.7318 66.8658 14.3678C67.1658 13.7678 67.6338 13.2938 68.2698 12.9458C68.9058 12.5858 69.5898 12.4058 70.3218 12.4058ZM81.3209 22.6478C80.3849 22.6478 79.5389 22.4378 78.7829 22.0178C78.0269 21.5858 77.4329 20.9858 77.0009 20.2178C76.5689 19.4378 76.3529 18.5378 76.3529 17.5178C76.3529 16.5098 76.5749 15.6158 77.0189 14.8358C77.4629 14.0558 78.0689 13.4558 78.8369 13.0358C79.6049 12.6158 80.4629 12.4058 81.4109 12.4058C82.3589 12.4058 83.2169 12.6158 83.9849 13.0358C84.7529 13.4558 85.3589 14.0558 85.8029 14.8358C86.2469 15.6158 86.4689 16.5098 86.4689 17.5178C86.4689 18.5258 86.2409 19.4198 85.7849 20.1998C85.3289 20.9798 84.7049 21.5858 83.9129 22.0178C83.1329 22.4378 82.2689 22.6478 81.3209 22.6478ZM81.3209 20.8658C81.8489 20.8658 82.3409 20.7398 82.7969 20.4878C83.2649 20.2358 83.6429 19.8578 83.9309 19.3538C84.2189 18.8498 84.3629 18.2378 84.3629 17.5178C84.3629 16.7978 84.2249 16.1918 83.9489 15.6998C83.6729 15.1958 83.3069 14.8178 82.8509 14.5658C82.3949 14.3138 81.9029 14.1878 81.3749 14.1878C80.8469 14.1878 80.3549 14.3138 79.8989 14.5658C79.4549 14.8178 79.1009 15.1958 78.8369 15.6998C78.5729 16.1918 78.4409 16.7978 78.4409 17.5178C78.4409 18.5858 78.7109 19.4138 79.2509 20.0018C79.8029 20.5778 80.4929 20.8658 81.3209 20.8658ZM90.5495 14.0078C90.8495 13.5038 91.2455 13.1138 91.7375 12.8378C92.2415 12.5498 92.8355 12.4058 93.5195 12.4058V14.5298H92.9975C92.1935 14.5298 91.5815 14.7338 91.1615 15.1418C90.7535 15.5498 90.5495 16.2578 90.5495 17.2658V22.4858H88.4975V12.5678H90.5495V14.0078ZM104.496 17.2838C104.496 17.6558 104.472 17.9918 104.424 18.2918H96.8457C96.9057 19.0838 97.1997 19.7198 97.7277 20.1998C98.2557 20.6798 98.9037 20.9198 99.6717 20.9198C100.776 20.9198 101.556 20.4578 102.012 19.5338H104.226C103.926 20.4458 103.38 21.1958 102.588 21.7838C101.808 22.3598 100.836 22.6478 99.6717 22.6478C98.7237 22.6478 97.8717 22.4378 97.1157 22.0178C96.3717 21.5858 95.7837 20.9858 95.3517 20.2178C94.9317 19.4378 94.7217 18.5378 94.7217 17.5178C94.7217 16.4978 94.9257 15.6038 95.3337 14.8358C95.7537 14.0558 96.3357 13.4558 97.0797 13.0358C97.8357 12.6158 98.6997 12.4058 99.6717 12.4058C100.608 12.4058 101.442 12.6098 102.174 13.0178C102.906 13.4258 103.476 14.0018 103.884 14.7458C104.292 15.4778 104.496 16.3238 104.496 17.2838ZM102.354 16.6358C102.342 15.8798 102.072 15.2738 101.544 14.8178C101.016 14.3618 100.362 14.1338 99.5817 14.1338C98.8737 14.1338 98.2677 14.3618 97.7637 14.8178C97.2597 15.2618 96.9597 15.8678 96.8637 16.6358H102.354ZM118.521 12.4058C119.301 12.4058 119.997 12.5678 120.609 12.8918C121.233 13.2158 121.719 13.6958 122.067 14.3318C122.427 14.9678 122.607 15.7358 122.607 16.6358V22.4858H120.573V16.9418C120.573 16.0538 120.351 15.3758 119.907 14.9078C119.463 14.4278 118.857 14.1878 118.089 14.1878C117.321 14.1878 116.709 14.4278 116.253 14.9078C115.809 15.3758 115.587 16.0538 115.587 16.9418V22.4858H113.553V16.9418C113.553 16.0538 113.331 15.3758 112.887 14.9078C112.443 14.4278 111.837 14.1878 111.069 14.1878C110.301 14.1878 109.689 14.4278 109.233 14.9078C108.789 15.3758 108.567 16.0538 108.567 16.9418V22.4858H106.515V12.5678H108.567V13.7018C108.903 13.2938 109.329 12.9758 109.845 12.7478C110.361 12.5198 110.913 12.4058 111.501 12.4058C112.293 12.4058 113.001 12.5738 113.625 12.9098C114.249 13.2458 114.729 13.7318 115.065 14.3678C115.365 13.7678 115.833 13.2938 116.469 12.9458C117.105 12.5858 117.789 12.4058 118.521 12.4058ZM129.52 22.6478C128.584 22.6478 127.738 22.4378 126.982 22.0178C126.226 21.5858 125.632 20.9858 125.2 20.2178C124.768 19.4378 124.552 18.5378 124.552 17.5178C124.552 16.5098 124.774 15.6158 125.218 14.8358C125.662 14.0558 126.268 13.4558 127.036 13.0358C127.804 12.6158 128.662 12.4058 129.61 12.4058C130.558 12.4058 131.416 12.6158 132.184 13.0358C132.952 13.4558 133.558 14.0558 134.002 14.8358C134.446 15.6158 134.668 16.5098 134.668 17.5178C134.668 18.5258 134.44 19.4198 133.984 20.1998C133.528 20.9798 132.904 21.5858 132.112 22.0178C131.332 22.4378 130.468 22.6478 129.52 22.6478ZM129.52 20.8658C130.048 20.8658 130.54 20.7398 130.996 20.4878C131.464 20.2358 131.842 19.8578 132.13 19.3538C132.418 18.8498 132.562 18.2378 132.562 17.5178C132.562 16.7978 132.424 16.1918 132.148 15.6998C131.872 15.1958 131.506 14.8178 131.05 14.5658C130.594 14.3138 130.102 14.1878 129.574 14.1878C129.046 14.1878 128.554 14.3138 128.098 14.5658C127.654 14.8178 127.3 15.1958 127.036 15.6998C126.772 16.1918 126.64 16.7978 126.64 17.5178C126.64 18.5858 126.91 19.4138 127.45 20.0018C128.002 20.5778 128.692 20.8658 129.52 20.8658ZM141.701 12.4058C142.481 12.4058 143.177 12.5678 143.789 12.8918C144.413 13.2158 144.899 13.6958 145.247 14.3318C145.595 14.9678 145.769 15.7358 145.769 16.6358V22.4858H143.735V16.9418C143.735 16.0538 143.513 15.3758 143.069 14.9078C142.625 14.4278 142.019 14.1878 141.251 14.1878C140.483 14.1878 139.871 14.4278 139.415 14.9078C138.971 15.3758 138.749 16.0538 138.749 16.9418V22.4858H136.697V12.5678H138.749V13.7018C139.085 13.2938 139.511 12.9758 140.027 12.7478C140.555 12.5198 141.113 12.4058 141.701 12.4058ZM157.476 17.2838C157.476 17.6558 157.452 17.9918 157.404 18.2918H149.826C149.886 19.0838 150.18 19.7198 150.708 20.1998C151.236 20.6798 151.884 20.9198 152.652 20.9198C153.756 20.9198 154.536 20.4578 154.992 19.5338H157.206C156.906 20.4458 156.36 21.1958 155.568 21.7838C154.788 22.3598 153.816 22.6478 152.652 22.6478C151.704 22.6478 150.852 22.4378 150.096 22.0178C149.352 21.5858 148.764 20.9858 148.332 20.2178C147.912 19.4378 147.702 18.5378 147.702 17.5178C147.702 16.4978 147.906 15.6038 148.314 14.8358C148.734 14.0558 149.316 13.4558 150.06 13.0358C150.816 12.6158 151.68 12.4058 152.652 12.4058C153.588 12.4058 154.422 12.6098 155.154 13.0178C155.886 13.4258 156.456 14.0018 156.864 14.7458C157.272 15.4778 157.476 16.3238 157.476 17.2838ZM155.334 16.6358C155.322 15.8798 155.052 15.2738 154.524 14.8178C153.996 14.3618 153.342 14.1338 152.562 14.1338C151.854 14.1338 151.248 14.3618 150.744 14.8178C150.24 15.2618 149.94 15.8678 149.844 16.6358H155.334ZM168.424 12.5678L162.34 27.1478H160.216L162.232 22.3238L158.326 12.5678H160.612L163.402 20.1278L166.3 12.5678H168.424Z" fill="white"/>
<path d="M3 28.5326V16.0944C3 9.10507 8.66598 3.43909 15.6553 3.43909V3.43909C22.6447 3.43909 28.3107 9.10508 28.3107 16.0944V28.5326" stroke="white" stroke-opacity="0.15" stroke-width="5"/>
<path d="M15.6554 28.5326V16.0944C15.6554 9.10507 21.3214 3.43909 28.3107 3.43909V3.43909C35.3001 3.43909 40.9661 9.10508 40.9661 16.0944V28.5326" stroke="url(#paint0_linear_2_28)" stroke-width="5"/>
<defs>
<linearGradient id="paint0_linear_2_28" x1="28.3107" y1="3.43909" x2="28.3107" y2="28.5326" gradientUnits="userSpaceOnUse">
<stop stop-color="#00E9B1"/>
<stop offset="1" stop-color="#0C9F7B"/>
</linearGradient>
</defs>
</svg>
