<svg width="182" height="146" viewBox="0 0 182 146" fill="none" xmlns="http://www.w3.org/2000/svg">
<mask id="path-1-inside-1_407_15829" fill="white">
<path d="M26.5656 39.8589C14.9965 54.4691 8.76238 72.5914 8.89485 91.2269L49.7983 90.9361C49.7321 81.6184 52.8492 72.5572 58.6337 65.2521L26.5656 39.8589Z"/>
</mask>
<path d="M26.5656 39.8589C14.9965 54.4691 8.76238 72.5914 8.89485 91.2269L49.7983 90.9361C49.7321 81.6184 52.8492 72.5572 58.6337 65.2521L26.5656 39.8589Z" fill="#E84142" stroke="white" stroke-width="2.38858" mask="url(#path-1-inside-1_407_15829)"/>
<mask id="path-2-inside-2_407_15829" fill="white">
<path d="M172.506 89.7212C172.384 78.9786 170.148 68.365 165.925 58.4866C161.702 48.6081 155.574 39.6582 147.892 32.1479C140.21 24.6375 131.124 18.7137 121.153 14.7148C111.182 10.7159 100.52 8.7202 89.7776 8.84157C79.035 8.96293 68.4215 11.199 58.543 15.4222C48.6646 19.6453 39.7147 25.7728 32.2043 33.4549C24.6939 41.1369 18.7702 50.2229 14.7713 60.1943C10.7724 70.1656 8.77664 80.8269 8.89801 91.5696L49.7999 91.1075C49.7392 85.7362 50.7371 80.4055 52.7365 75.4198C54.736 70.4342 57.6979 65.8911 61.453 62.0501C65.2082 58.2091 69.6832 55.1454 74.6224 53.0338C79.5616 50.9222 84.8684 49.8042 90.2397 49.7435C95.611 49.6828 100.942 50.6807 105.927 52.6801C110.913 54.6796 115.456 57.6414 119.297 61.3966C123.138 65.1518 126.202 69.6268 128.313 74.566C130.425 79.5052 131.543 84.812 131.604 90.1833L172.506 89.7212Z"/>
</mask>
<path d="M172.506 89.7212C172.384 78.9786 170.148 68.365 165.925 58.4866C161.702 48.6081 155.574 39.6582 147.892 32.1479C140.21 24.6375 131.124 18.7137 121.153 14.7148C111.182 10.7159 100.52 8.7202 89.7776 8.84157C79.035 8.96293 68.4215 11.199 58.543 15.4222C48.6646 19.6453 39.7147 25.7728 32.2043 33.4549C24.6939 41.1369 18.7702 50.2229 14.7713 60.1943C10.7724 70.1656 8.77664 80.8269 8.89801 91.5696L49.7999 91.1075C49.7392 85.7362 50.7371 80.4055 52.7365 75.4198C54.736 70.4342 57.6979 65.8911 61.453 62.0501C65.2082 58.2091 69.6832 55.1454 74.6224 53.0338C79.5616 50.9222 84.8684 49.8042 90.2397 49.7435C95.611 49.6828 100.942 50.6807 105.927 52.6801C110.913 54.6796 115.456 57.6414 119.297 61.3966C123.138 65.1518 126.202 69.6268 128.313 74.566C130.425 79.5052 131.543 84.812 131.604 90.1833L172.506 89.7212Z" stroke="white" stroke-width="2.38858" mask="url(#path-2-inside-2_407_15829)"/>
<path d="M71.3806 78.9785H68.5809C68.5297 78.6163 68.4253 78.2946 68.2677 78.0133C68.11 77.7278 67.9076 77.4849 67.6604 77.2846C67.4133 77.0843 67.1278 76.9309 66.8039 76.8244C66.4843 76.7179 66.137 76.6646 65.762 76.6646C65.0844 76.6646 64.4942 76.8329 63.9914 77.1696C63.4885 77.502 63.0986 77.9877 62.8216 78.627C62.5447 79.2619 62.4062 80.0332 62.4062 80.9409C62.4062 81.8741 62.5447 82.6582 62.8216 83.2931C63.1029 83.9281 63.4949 84.4075 63.9978 84.7314C64.5006 85.0552 65.0823 85.2172 65.7428 85.2172C66.1135 85.2172 66.4566 85.1681 66.7719 85.0701C67.0915 84.9721 67.3749 84.8294 67.6221 84.6419C67.8692 84.4501 68.0738 84.2179 68.2357 83.9451C68.4019 83.6724 68.517 83.3613 68.5809 83.0119L71.3806 83.0247C71.3082 83.6255 71.127 84.2051 70.8373 84.7633C70.5518 85.3173 70.1661 85.8137 69.6803 86.2527C69.1988 86.6873 68.6235 87.0325 67.9545 87.2882C67.2897 87.5396 66.5376 87.6653 65.6981 87.6653C64.5305 87.6653 63.4864 87.4011 62.566 86.8727C61.6498 86.3443 60.9253 85.5794 60.3927 84.5779C59.8643 83.5765 59.6001 82.3642 59.6001 80.9409C59.6001 79.5133 59.8685 78.2988 60.4055 77.2974C60.9424 76.296 61.6711 75.5332 62.5915 75.0091C63.512 74.4806 64.5475 74.2164 65.6981 74.2164C66.4566 74.2164 67.1597 74.323 67.8074 74.536C68.4594 74.7491 69.0368 75.0602 69.5397 75.4693C70.0425 75.8741 70.4516 76.3706 70.767 76.9586C71.0866 77.5467 71.2911 78.22 71.3806 78.9785ZM73.3142 87.4863V77.6681H75.9541V79.3812H76.0564C76.2354 78.7718 76.5358 78.3116 76.9577 78.0005C77.3795 77.6852 77.8653 77.5275 78.415 77.5275C78.5514 77.5275 78.6984 77.536 78.8561 77.5531C79.0138 77.5701 79.1523 77.5936 79.2716 77.6234V80.0396C79.1437 80.0012 78.9669 79.9672 78.741 79.9373C78.5152 79.9075 78.3085 79.8926 78.121 79.8926C77.7204 79.8926 77.3625 79.9799 77.0471 80.1547C76.7361 80.3251 76.4889 80.5637 76.3057 80.8706C76.1267 81.1774 76.0372 81.5311 76.0372 81.9316V87.4863H73.3142ZM80.6794 87.4863V77.6681H83.4024V87.4863H80.6794ZM82.0473 76.4025C81.6425 76.4025 81.2952 76.2683 81.0054 75.9998C80.7199 75.7271 80.5771 75.4011 80.5771 75.0218C80.5771 74.6468 80.7199 74.3251 81.0054 74.0566C81.2952 73.7839 81.6425 73.6475 82.0473 73.6475C82.4521 73.6475 82.7973 73.7839 83.0828 74.0566C83.3726 74.3251 83.5175 74.6468 83.5175 75.0218C83.5175 75.4011 83.3726 75.7271 83.0828 75.9998C82.7973 76.2683 82.4521 76.4025 82.0473 76.4025ZM90.806 77.6681V79.7136H84.8934V77.6681H90.806ZM86.2357 75.3159H88.9587V84.4693C88.9587 84.7207 88.9971 84.9167 89.0738 85.0574C89.1505 85.1937 89.257 85.2896 89.3934 85.345C89.534 85.4004 89.6959 85.4281 89.8792 85.4281C90.007 85.4281 90.1349 85.4174 90.2627 85.3961C90.3905 85.3706 90.4885 85.3514 90.5567 85.3386L90.985 87.3649C90.8486 87.4075 90.6569 87.4565 90.4097 87.5119C90.1626 87.5716 89.8621 87.6078 89.5084 87.6206C88.8522 87.6461 88.2769 87.5588 87.7826 87.3585C87.2925 87.1582 86.9111 86.8471 86.6384 86.4252C86.3657 86.0034 86.2314 85.4707 86.2357 84.8272V75.3159ZM92.5798 87.4863V77.6681H95.3028V87.4863H92.5798ZM93.9477 76.4025C93.5429 76.4025 93.1956 76.2683 92.9058 75.9998C92.6203 75.7271 92.4775 75.4011 92.4775 75.0218C92.4775 74.6468 92.6203 74.3251 92.9058 74.0566C93.1956 73.7839 93.5429 73.6475 93.9477 73.6475C94.3525 73.6475 94.6977 73.7839 94.9832 74.0566C95.273 74.3251 95.4179 74.6468 95.4179 75.0218C95.4179 75.4011 95.273 75.7271 94.9832 75.9998C94.6977 76.2683 94.3525 76.4025 93.9477 76.4025ZM101.92 87.6781C100.915 87.6781 100.049 87.465 99.325 87.0389C98.6048 86.6085 98.0509 86.0119 97.6631 85.2491C97.2796 84.4863 97.0878 83.6085 97.0878 82.6156C97.0878 81.6099 97.2817 80.7278 97.6695 79.9693C98.0615 79.2065 98.6176 78.612 99.3378 78.1859C100.058 77.7555 100.915 77.5403 101.907 77.5403C102.764 77.5403 103.514 77.6958 104.157 78.0069C104.801 78.318 105.31 78.7548 105.685 79.3173C106.06 79.8798 106.267 80.5403 106.305 81.2988H103.736C103.663 80.8088 103.471 80.4146 103.16 80.1163C102.853 79.8137 102.451 79.6625 101.952 79.6625C101.53 79.6625 101.162 79.7775 100.846 80.0076C100.535 80.2335 100.292 80.5637 100.118 80.9984C99.9429 81.4331 99.8556 81.9593 99.8556 82.5772C99.8556 83.2037 99.9408 83.7363 100.111 84.1752C100.286 84.6142 100.531 84.9487 100.846 85.1788C101.162 85.4089 101.53 85.524 101.952 85.524C102.263 85.524 102.542 85.46 102.79 85.3322C103.041 85.2044 103.248 85.019 103.41 84.7761C103.576 84.5289 103.684 84.2328 103.736 83.8876H106.305C106.263 84.6376 106.058 85.2981 105.691 85.8691C105.329 86.4359 104.829 86.8791 104.189 87.1987C103.55 87.5183 102.794 87.6781 101.92 87.6781ZM110.848 87.6717C110.222 87.6717 109.664 87.563 109.174 87.3457C108.684 87.1241 108.296 86.7981 108.01 86.3677C107.729 85.9331 107.588 85.3919 107.588 84.7441C107.588 84.1987 107.688 83.7406 107.889 83.3699C108.089 82.9991 108.362 82.7008 108.707 82.475C109.052 82.2491 109.444 82.0787 109.883 81.9636C110.326 81.8485 110.791 81.7676 111.277 81.7207C111.848 81.661 112.308 81.6056 112.657 81.5545C113.007 81.4991 113.26 81.4181 113.418 81.3116C113.576 81.2051 113.654 81.0474 113.654 80.8386V80.8002C113.654 80.3954 113.527 80.0822 113.271 79.8606C113.019 79.639 112.661 79.5282 112.197 79.5282C111.707 79.5282 111.317 79.6369 111.027 79.8542C110.737 80.0673 110.546 80.3358 110.452 80.6596L107.934 80.4551C108.061 79.8585 108.313 79.3429 108.688 78.9082C109.063 78.4693 109.546 78.1326 110.139 77.8983C110.735 77.6596 111.426 77.5403 112.21 77.5403C112.755 77.5403 113.277 77.6042 113.776 77.7321C114.279 77.8599 114.724 78.0581 115.112 78.3265C115.504 78.595 115.813 78.9402 116.039 79.362C116.264 79.7797 116.377 80.2804 116.377 80.8642V87.4863H113.795V86.1248H113.718C113.561 86.4316 113.35 86.7022 113.085 86.9366C112.821 87.1667 112.504 87.3478 112.133 87.4799C111.762 87.6078 111.334 87.6717 110.848 87.6717ZM111.628 85.7924C112.029 85.7924 112.382 85.7136 112.689 85.5559C112.996 85.394 113.237 85.1767 113.411 84.9039C113.586 84.6312 113.674 84.3223 113.674 83.9771V82.9352C113.588 82.9906 113.471 83.0417 113.322 83.0886C113.177 83.1312 113.013 83.1717 112.83 83.21C112.647 83.2441 112.463 83.2761 112.28 83.3059C112.097 83.3315 111.931 83.3549 111.782 83.3762C111.462 83.4231 111.183 83.4977 110.944 83.6C110.706 83.7022 110.52 83.8407 110.388 84.0154C110.256 84.1859 110.19 84.399 110.19 84.6547C110.19 85.0254 110.324 85.3088 110.593 85.5048C110.865 85.6966 111.21 85.7924 111.628 85.7924ZM121.213 74.3954V87.4863H118.49V74.3954H121.213Z" fill="#E84142"/>
</svg>
