<svg width="182" height="182" viewBox="0 0 182 182" fill="none" xmlns="http://www.w3.org/2000/svg">
<mask id="path-1-inside-1_127_13506" fill="white">
<path d="M106.472 10.3707C94.5592 8.0305 82.2754 8.37088 70.5109 11.3671C58.7464 14.3633 47.7963 19.9403 38.4546 27.6935C29.1128 35.4467 21.6138 45.1818 16.5012 56.1928C11.3886 67.2037 8.79069 79.2145 8.89586 91.3541L49.7988 90.9997C49.7462 84.93 51.0452 78.9245 53.6015 73.4191C56.1578 67.9136 59.9073 63.046 64.5782 59.1694C69.249 55.2928 74.7241 52.5044 80.6064 51.0062C86.4886 49.5081 92.6305 49.3379 98.5867 50.508L106.472 10.3707Z"/>
</mask>
<path d="M106.472 10.3707C94.5592 8.0305 82.2754 8.37088 70.5109 11.3671C58.7464 14.3633 47.7963 19.9403 38.4546 27.6935C29.1128 35.4467 21.6138 45.1818 16.5012 56.1928C11.3886 67.2037 8.79069 79.2145 8.89586 91.3541L49.7988 90.9997C49.7462 84.93 51.0452 78.9245 53.6015 73.4191C56.1578 67.9136 59.9073 63.046 64.5782 59.1694C69.249 55.2928 74.7241 52.5044 80.6064 51.0062C86.4886 49.5081 92.6305 49.3379 98.5867 50.508L106.472 10.3707Z" fill="#16E3FE" stroke="white" stroke-width="2.38858" mask="url(#path-1-inside-1_127_13506)"/>
<g opacity="0.98">
<mask id="path-2-inside-2_127_13506" fill="white">
<path d="M155.503 40.7127C143.223 24.7753 125.501 13.9221 105.723 10.2275L98.2115 50.4364C108.1 52.2837 116.962 57.7103 123.102 65.679L155.503 40.7127Z"/>
</mask>
<path d="M155.503 40.7127C143.223 24.7753 125.501 13.9221 105.723 10.2275L98.2115 50.4364C108.1 52.2837 116.962 57.7103 123.102 65.679L155.503 40.7127Z" fill="#17F0FF" fill-opacity="0.4" stroke="white" stroke-width="2.38858" mask="url(#path-2-inside-2_127_13506)"/>
</g>
<mask id="path-3-inside-3_127_13506" fill="white">
<path d="M172.506 89.7212C172.384 78.9786 170.148 68.365 165.925 58.4866C161.702 48.6081 155.574 39.6582 147.892 32.1479C140.21 24.6375 131.124 18.7137 121.153 14.7148C111.182 10.7159 100.52 8.7202 89.7776 8.84157C79.035 8.96293 68.4215 11.199 58.543 15.4222C48.6646 19.6453 39.7147 25.7728 32.2043 33.4549C24.6939 41.1369 18.7702 50.2229 14.7713 60.1943C10.7724 70.1656 8.77664 80.8269 8.89801 91.5696L49.7999 91.1075C49.7392 85.7362 50.7371 80.4055 52.7365 75.4198C54.736 70.4342 57.6979 65.8911 61.453 62.0501C65.2082 58.2091 69.6832 55.1454 74.6224 53.0338C79.5616 50.9222 84.8684 49.8042 90.2397 49.7435C95.611 49.6828 100.942 50.6807 105.927 52.6801C110.913 54.6796 115.456 57.6414 119.297 61.3966C123.138 65.1518 126.202 69.6268 128.313 74.566C130.425 79.5052 131.543 84.812 131.604 90.1833L172.506 89.7212Z"/>
</mask>
<path d="M172.506 89.7212C172.384 78.9786 170.148 68.365 165.925 58.4866C161.702 48.6081 155.574 39.6582 147.892 32.1479C140.21 24.6375 131.124 18.7137 121.153 14.7148C111.182 10.7159 100.52 8.7202 89.7776 8.84157C79.035 8.96293 68.4215 11.199 58.543 15.4222C48.6646 19.6453 39.7147 25.7728 32.2043 33.4549C24.6939 41.1369 18.7702 50.2229 14.7713 60.1943C10.7724 70.1656 8.77664 80.8269 8.89801 91.5696L49.7999 91.1075C49.7392 85.7362 50.7371 80.4055 52.7365 75.4198C54.736 70.4342 57.6979 65.8911 61.453 62.0501C65.2082 58.2091 69.6832 55.1454 74.6224 53.0338C79.5616 50.9222 84.8684 49.8042 90.2397 49.7435C95.611 49.6828 100.942 50.6807 105.927 52.6801C110.913 54.6796 115.456 57.6414 119.297 61.3966C123.138 65.1518 126.202 69.6268 128.313 74.566C130.425 79.5052 131.543 84.812 131.604 90.1833L172.506 89.7212Z" stroke="white" stroke-width="2.38858" mask="url(#path-3-inside-3_127_13506)"/>
<path d="M78.9464 78.1603C78.8952 77.6447 78.6758 77.2441 78.288 76.9586C77.9002 76.6731 77.3739 76.5304 76.7092 76.5304C76.2575 76.5304 75.8761 76.5943 75.565 76.7221C75.2539 76.8457 75.0153 77.0183 74.8491 77.2399C74.6871 77.4615 74.6062 77.7129 74.6062 77.9941C74.5977 78.2285 74.6467 78.4331 74.7532 78.6078C74.864 78.7825 75.0153 78.9338 75.207 79.0616C75.3988 79.1852 75.6204 79.2939 75.8718 79.3876C76.1232 79.4771 76.3917 79.5538 76.6772 79.6177L77.8533 79.899C78.4244 80.0268 78.9485 80.1973 79.4258 80.4103C79.9031 80.6234 80.3164 80.8855 80.6658 81.1966C81.0153 81.5076 81.2859 81.8741 81.4776 82.296C81.6737 82.7179 81.7738 83.2015 81.7781 83.747C81.7738 84.5481 81.5692 85.2427 81.1644 85.8308C80.7638 86.4146 80.1843 86.8684 79.4258 87.1923C78.6715 87.5119 77.7617 87.6717 76.6964 87.6717C75.6396 87.6717 74.7191 87.5098 73.935 87.1859C73.1552 86.862 72.5458 86.3826 72.1069 85.7477C71.6722 85.1085 71.4442 84.318 71.4229 83.3762H74.1012C74.131 83.8152 74.2567 84.1816 74.4783 84.4757C74.7042 84.7654 75.0046 84.9849 75.3796 85.1341C75.7589 85.2789 76.1871 85.3514 76.6644 85.3514C77.1332 85.3514 77.5401 85.2832 77.8853 85.1468C78.2347 85.0105 78.5053 84.8208 78.6971 84.5779C78.8888 84.335 78.9847 84.0559 78.9847 83.7406C78.9847 83.4466 78.8974 83.1994 78.7227 82.9991C78.5522 82.7988 78.3008 82.6284 77.9684 82.4877C77.6403 82.3471 77.2376 82.2193 76.7603 82.1042L75.3349 81.7463C74.2312 81.4778 73.3597 81.0581 72.7205 80.487C72.0813 79.916 71.7638 79.1468 71.7681 78.1795C71.7638 77.3869 71.9748 76.6944 72.4009 76.1021C72.8313 75.5098 73.4215 75.0474 74.1715 74.715C74.9215 74.3826 75.7738 74.2164 76.7283 74.2164C77.6999 74.2164 78.5479 74.3826 79.2724 74.715C80.0011 75.0474 80.5678 75.5098 80.9727 76.1021C81.3775 76.6944 81.5863 77.3805 81.5991 78.1603H78.9464ZM86.3883 87.6717C85.7619 87.6717 85.2037 87.563 84.7136 87.3457C84.2235 87.1241 83.8358 86.7981 83.5502 86.3677C83.269 85.9331 83.1284 85.3919 83.1284 84.7441C83.1284 84.1987 83.2285 83.7406 83.4288 83.3699C83.6291 82.9991 83.9018 82.7008 84.247 82.475C84.5922 82.2491 84.9842 82.0787 85.4231 81.9636C85.8663 81.8485 86.3308 81.7676 86.8166 81.7207C87.3876 81.661 87.8478 81.6056 88.1973 81.5545C88.5467 81.4991 88.8002 81.4181 88.9579 81.3116C89.1156 81.2051 89.1944 81.0474 89.1944 80.8386V80.8002C89.1944 80.3954 89.0666 80.0822 88.8109 79.8606C88.5595 79.639 88.2015 79.5282 87.737 79.5282C87.247 79.5282 86.8571 79.6369 86.5673 79.8542C86.2775 80.0673 86.0858 80.3358 85.992 80.6596L83.4735 80.4551C83.6014 79.8585 83.8528 79.3429 84.2278 78.9082C84.6028 78.4693 85.0865 78.1326 85.6788 77.8983C86.2754 77.6596 86.9657 77.5403 87.7498 77.5403C88.2953 77.5403 88.8173 77.6042 89.3159 77.7321C89.8187 77.8599 90.264 78.0581 90.6518 78.3265C91.0439 78.595 91.3528 78.9402 91.5787 79.362C91.8045 79.7797 91.9174 80.2804 91.9174 80.8642V87.4863H89.3351V86.1248H89.2583C89.1007 86.4316 88.8897 86.7022 88.6255 86.9366C88.3613 87.1667 88.0439 87.3478 87.6731 87.4799C87.3024 87.6078 86.8741 87.6717 86.3883 87.6717ZM87.1681 85.7924C87.5687 85.7924 87.9224 85.7136 88.2292 85.5559C88.536 85.394 88.7768 85.1767 88.9515 84.9039C89.1262 84.6312 89.2136 84.3223 89.2136 83.9771V82.9352C89.1284 82.9906 89.0112 83.0417 88.862 83.0886C88.7172 83.1312 88.5531 83.1717 88.3699 83.21C88.1866 83.2441 88.0034 83.2761 87.8201 83.3059C87.6369 83.3315 87.4707 83.3549 87.3216 83.3762C87.002 83.4231 86.7228 83.4977 86.4842 83.6C86.2456 83.7022 86.0602 83.8407 85.9281 84.0154C85.796 84.1859 85.7299 84.399 85.7299 84.6547C85.7299 85.0254 85.8642 85.3088 86.1326 85.5048C86.4054 85.6966 86.7505 85.7924 87.1681 85.7924ZM99.3098 77.6681V79.7136H93.2502V77.6681H99.3098ZM94.6373 87.4863V76.9586C94.6373 76.247 94.7757 75.6568 95.0527 75.188C95.334 74.7193 95.7175 74.3677 96.2033 74.1333C96.6891 73.899 97.2409 73.7818 97.8588 73.7818C98.2765 73.7818 98.6578 73.8137 99.003 73.8777C99.3525 73.9416 99.6124 73.9991 99.7828 74.0502L99.2971 76.0957C99.1905 76.0616 99.0584 76.0297 98.9007 75.9998C98.7473 75.97 98.5897 75.9551 98.4277 75.9551C98.0272 75.9551 97.748 76.0488 97.5904 76.2363C97.4327 76.4196 97.3539 76.6774 97.3539 77.0098V87.4863H94.6373ZM105.096 87.6781C104.086 87.6781 103.217 87.4735 102.488 87.0645C101.764 86.6511 101.206 86.0673 100.814 85.313C100.422 84.5545 100.225 83.6575 100.225 82.622C100.225 81.612 100.422 80.7257 100.814 79.9629C101.206 79.2001 101.757 78.6056 102.469 78.1795C103.185 77.7534 104.025 77.5403 104.988 77.5403C105.635 77.5403 106.238 77.6447 106.797 77.8535C107.359 78.0581 107.849 78.367 108.267 78.7804C108.689 79.1937 109.017 79.7136 109.251 80.34C109.485 80.9622 109.603 81.6909 109.603 82.5261V83.274H101.312V81.5865H107.039C107.039 81.1944 106.954 80.8471 106.784 80.5446C106.613 80.242 106.377 80.0055 106.074 79.835C105.776 79.6603 105.429 79.573 105.032 79.573C104.619 79.573 104.252 79.6689 103.933 79.8606C103.618 80.0481 103.37 80.3017 103.191 80.6213C103.012 80.9366 102.921 81.2882 102.917 81.676V83.2804C102.917 83.7662 103.006 84.1859 103.185 84.5396C103.368 84.8933 103.626 85.166 103.958 85.3578C104.291 85.5495 104.685 85.6454 105.141 85.6454C105.444 85.6454 105.721 85.6028 105.972 85.5176C106.223 85.4324 106.439 85.3045 106.618 85.1341C106.797 84.9636 106.933 84.7548 107.027 84.5076L109.545 84.6738C109.417 85.2789 109.155 85.8074 108.759 86.2591C108.367 86.7065 107.86 87.0559 107.238 87.3074C106.62 87.5545 105.906 87.6781 105.096 87.6781Z" fill="#00EFFF"/>
</svg>
