<svg width="182" height="182" viewBox="0 0 182 182" fill="none" xmlns="http://www.w3.org/2000/svg">
<mask id="path-1-inside-1_166_7396" fill="white">
<path d="M49.4555 19.9951C36.9796 27.2787 26.6548 37.736 19.531 50.3039C12.4072 62.8717 8.73846 77.1019 8.89776 91.5474L49.7998 91.0964C49.7201 83.8736 51.5545 76.7586 55.1164 70.4746C58.6783 64.1907 63.8407 58.962 70.0787 55.3202L49.4555 19.9951Z"/>
</mask>
<path d="M49.4555 19.9951C36.9796 27.2787 26.6548 37.736 19.531 50.3039C12.4072 62.8717 8.73846 77.1019 8.89776 91.5474L49.7998 91.0964C49.7201 83.8736 51.5545 76.7586 55.1164 70.4746C58.6783 64.1907 63.8407 58.962 70.0787 55.3202L49.4555 19.9951Z" fill="#E84142" stroke="white" stroke-width="2.38858" mask="url(#path-1-inside-1_166_7396)"/>
<g opacity="0.52">
<mask id="path-2-inside-2_166_7396" fill="white">
<path d="M49.6623 19.8747C32.2572 29.9678 19.1819 46.1208 12.9354 65.2463L51.8186 77.9458C54.9418 68.3831 61.4795 60.3066 70.182 55.26L49.6623 19.8747Z"/>
</mask>
<path d="M49.6623 19.8747C32.2572 29.9678 19.1819 46.1208 12.9354 65.2463L51.8186 77.9458C54.9418 68.3831 61.4795 60.3066 70.182 55.26L49.6623 19.8747Z" fill="#FFA826" stroke="white" stroke-width="2.38858" mask="url(#path-2-inside-2_166_7396)"/>
</g>
<mask id="path-3-inside-3_166_7396" fill="white">
<path d="M172.506 89.7212C172.384 78.9786 170.148 68.365 165.925 58.4866C161.702 48.6081 155.574 39.6582 147.892 32.1479C140.21 24.6375 131.124 18.7137 121.153 14.7148C111.182 10.7159 100.52 8.7202 89.7776 8.84157C79.035 8.96293 68.4215 11.199 58.543 15.4222C48.6646 19.6453 39.7147 25.7728 32.2043 33.4549C24.6939 41.1369 18.7702 50.2229 14.7713 60.1943C10.7724 70.1656 8.77664 80.8269 8.89801 91.5696L49.7999 91.1075C49.7392 85.7362 50.7371 80.4055 52.7365 75.4198C54.736 70.4342 57.6979 65.8911 61.453 62.0501C65.2082 58.2091 69.6832 55.1454 74.6224 53.0338C79.5616 50.9222 84.8684 49.8042 90.2397 49.7435C95.611 49.6828 100.942 50.6807 105.927 52.6801C110.913 54.6796 115.456 57.6414 119.297 61.3966C123.138 65.1518 126.202 69.6268 128.313 74.566C130.425 79.5052 131.543 84.812 131.604 90.1833L172.506 89.7212Z"/>
</mask>
<path d="M172.506 89.7212C172.384 78.9786 170.148 68.365 165.925 58.4866C161.702 48.6081 155.574 39.6582 147.892 32.1479C140.21 24.6375 131.124 18.7137 121.153 14.7148C111.182 10.7159 100.52 8.7202 89.7776 8.84157C79.035 8.96293 68.4215 11.199 58.543 15.4222C48.6646 19.6453 39.7147 25.7728 32.2043 33.4549C24.6939 41.1369 18.7702 50.2229 14.7713 60.1943C10.7724 70.1656 8.77664 80.8269 8.89801 91.5696L49.7999 91.1075C49.7392 85.7362 50.7371 80.4055 52.7365 75.4198C54.736 70.4342 57.6979 65.8911 61.453 62.0501C65.2082 58.2091 69.6832 55.1454 74.6224 53.0338C79.5616 50.9222 84.8684 49.8042 90.2397 49.7435C95.611 49.6828 100.942 50.6807 105.927 52.6801C110.913 54.6796 115.456 57.6414 119.297 61.3966C123.138 65.1518 126.202 69.6268 128.313 74.566C130.425 79.5052 131.543 84.812 131.604 90.1833L172.506 89.7212Z" stroke="white" stroke-width="2.38858" mask="url(#path-3-inside-3_166_7396)"/>
<path d="M68.6104 74.3954H71.3782V82.8968C71.3782 83.8514 71.1502 84.6866 70.6942 85.4025C70.2425 86.1184 69.6097 86.6767 68.7958 87.0772C67.9819 87.4735 67.0337 87.6717 65.9513 87.6717C64.8647 87.6717 63.9144 87.4735 63.1005 87.0772C62.2866 86.6767 61.6538 86.1184 61.2021 85.4025C60.7504 84.6866 60.5245 83.8514 60.5245 82.8968V74.3954H63.2923V82.6603C63.2923 83.1589 63.4009 83.6021 63.6183 83.9899C63.8398 84.3777 64.1509 84.6824 64.5515 84.9039C64.9521 85.1255 65.4187 85.2363 65.9513 85.2363C66.4883 85.2363 66.9549 85.1255 67.3512 84.9039C67.7518 84.6824 68.0607 84.3777 68.2781 83.9899C68.4996 83.6021 68.6104 83.1589 68.6104 82.6603V74.3954ZM76.3272 81.8102V87.4863H73.6042V77.6681H76.1994V79.4004H76.3145C76.5318 78.8294 76.8961 78.3777 77.4075 78.0453C77.9189 77.7086 78.5389 77.5403 79.2676 77.5403C79.9494 77.5403 80.5439 77.6895 81.051 77.9877C81.5581 78.286 81.9522 78.7122 82.2335 79.2662C82.5147 79.8159 82.6554 80.4721 82.6554 81.2349V87.4863H79.9324V81.7207C79.9366 81.1199 79.7832 80.6511 79.4721 80.3145C79.161 79.9735 78.7328 79.8031 78.1873 79.8031C77.8208 79.8031 77.497 79.8819 77.2157 80.0396C76.9387 80.1973 76.7214 80.4274 76.5637 80.7299C76.4103 81.0282 76.3315 81.3883 76.3272 81.8102ZM92.9705 80.4679L90.4776 80.6213C90.435 80.4082 90.3434 80.2164 90.2028 80.046C90.0621 79.8713 89.8768 79.7328 89.6467 79.6305C89.4208 79.524 89.1502 79.4707 88.8349 79.4707C88.413 79.4707 88.0572 79.5602 87.7674 79.7392C87.4776 79.9139 87.3327 80.1483 87.3327 80.4423C87.3327 80.6767 87.4265 80.8748 87.614 81.0368C87.8015 81.1987 88.1232 81.3287 88.5792 81.4267L90.3562 81.7846C91.3107 81.9806 92.0224 82.296 92.4911 82.7306C92.9599 83.1653 93.1942 83.7363 93.1942 84.4437C93.1942 85.0872 93.0046 85.6518 92.6254 86.1376C92.2504 86.6234 91.7347 87.0027 91.0785 87.2754C90.4265 87.5439 89.6744 87.6781 88.8221 87.6781C87.5224 87.6781 86.4869 87.4075 85.7156 86.8663C84.9485 86.3208 84.4989 85.5794 84.3668 84.6419L87.0451 84.5012C87.1261 84.8975 87.3221 85.2001 87.6332 85.4089C87.9442 85.6135 88.3427 85.7157 88.8285 85.7157C89.3058 85.7157 89.6893 85.6241 89.979 85.4409C90.2731 85.2534 90.4222 85.0126 90.4265 84.7186C90.4222 84.4714 90.3178 84.269 90.1133 84.1113C89.9087 83.9494 89.5934 83.8258 89.1673 83.7406L87.467 83.4018C86.5082 83.21 85.7944 82.8777 85.3256 82.4047C84.8612 81.9316 84.6289 81.3287 84.6289 80.5957C84.6289 79.965 84.7994 79.4217 85.1403 78.9657C85.4854 78.5098 85.9691 78.1582 86.5913 77.911C87.2177 77.6639 87.9506 77.5403 88.7901 77.5403C90.0302 77.5403 91.006 77.8024 91.7177 78.3265C92.4336 78.8507 92.8512 79.5645 92.9705 80.4679ZM97.7086 87.6717C97.0822 87.6717 96.524 87.563 96.0339 87.3457C95.5439 87.1241 95.1561 86.7981 94.8706 86.3677C94.5893 85.9331 94.4487 85.3919 94.4487 84.7441C94.4487 84.1987 94.5488 83.7406 94.7491 83.3699C94.9494 82.9991 95.2221 82.7008 95.5673 82.475C95.9125 82.2491 96.3045 82.0787 96.7434 81.9636C97.1866 81.8485 97.6511 81.7676 98.1369 81.7207C98.7079 81.661 99.1681 81.6056 99.5176 81.5545C99.867 81.4991 100.121 81.4181 100.278 81.3116C100.436 81.2051 100.515 81.0474 100.515 80.8386V80.8002C100.515 80.3954 100.387 80.0822 100.131 79.8606C99.8798 79.639 99.5218 79.5282 99.0574 79.5282C98.5673 79.5282 98.1774 79.6369 97.8876 79.8542C97.5978 80.0673 97.4061 80.3358 97.3123 80.6596L94.7939 80.4551C94.9217 79.8585 95.1731 79.3429 95.5481 78.9082C95.9231 78.4693 96.4068 78.1326 96.9991 77.8983C97.5957 77.6596 98.286 77.5403 99.0701 77.5403C99.6156 77.5403 100.138 77.6042 100.636 77.7321C101.139 77.8599 101.584 78.0581 101.972 78.3265C102.364 78.595 102.673 78.9402 102.899 79.362C103.125 79.7797 103.238 80.2804 103.238 80.8642V87.4863H100.655V86.1248H100.579C100.421 86.4316 100.21 86.7022 99.9458 86.9366C99.6816 87.1667 99.3642 87.3478 98.9934 87.4799C98.6227 87.6078 98.1944 87.6717 97.7086 87.6717ZM98.4885 85.7924C98.889 85.7924 99.2427 85.7136 99.5495 85.5559C99.8564 85.394 100.097 85.1767 100.272 84.9039C100.447 84.6312 100.534 84.3223 100.534 83.9771V82.9352C100.449 82.9906 100.331 83.0417 100.182 83.0886C100.037 83.1312 99.8734 83.1717 99.6902 83.21C99.5069 83.2441 99.3237 83.2761 99.1404 83.3059C98.9572 83.3315 98.791 83.3549 98.6419 83.3762C98.3223 83.4231 98.0431 83.4977 97.8045 83.6C97.5659 83.7022 97.3805 83.8407 97.2484 84.0154C97.1163 84.1859 97.0502 84.399 97.0502 84.6547C97.0502 85.0254 97.1845 85.3088 97.4529 85.5048C97.7257 85.6966 98.0708 85.7924 98.4885 85.7924ZM110.63 77.6681V79.7136H104.57V77.6681H110.63ZM105.958 87.4863V76.9586C105.958 76.247 106.096 75.6568 106.373 75.188C106.654 74.7193 107.038 74.3677 107.524 74.1333C108.009 73.899 108.561 73.7818 109.179 73.7818C109.597 73.7818 109.978 73.8137 110.323 73.8777C110.673 73.9416 110.933 73.9991 111.103 74.0502L110.617 76.0957C110.511 76.0616 110.379 76.0297 110.221 75.9998C110.068 75.97 109.91 75.9551 109.748 75.9551C109.347 75.9551 109.068 76.0488 108.911 76.2363C108.753 76.4196 108.674 76.6774 108.674 77.0098V87.4863H105.958ZM116.417 87.6781C115.407 87.6781 114.537 87.4735 113.809 87.0645C113.084 86.6511 112.526 86.0673 112.134 85.313C111.742 84.5545 111.546 83.6575 111.546 82.622C111.546 81.612 111.742 80.7257 112.134 79.9629C112.526 79.2001 113.078 78.6056 113.789 78.1795C114.505 77.7534 115.345 77.5403 116.308 77.5403C116.956 77.5403 117.559 77.6447 118.117 77.8535C118.679 78.0581 119.169 78.367 119.587 78.7804C120.009 79.1937 120.337 79.7136 120.571 80.34C120.806 80.9622 120.923 81.6909 120.923 82.5261V83.274H112.632V81.5865H118.36C118.36 81.1944 118.275 80.8471 118.104 80.5446C117.934 80.242 117.697 80.0055 117.395 79.835C117.096 79.6603 116.749 79.573 116.353 79.573C115.939 79.573 115.573 79.6689 115.253 79.8606C114.938 80.0481 114.691 80.3017 114.512 80.6213C114.333 80.9366 114.241 81.2882 114.237 81.676V83.2804C114.237 83.7662 114.326 84.1859 114.505 84.5396C114.689 84.8933 114.946 85.166 115.279 85.3578C115.611 85.5495 116.005 85.6454 116.461 85.6454C116.764 85.6454 117.041 85.6028 117.292 85.5176C117.544 85.4324 117.759 85.3045 117.938 85.1341C118.117 84.9636 118.253 84.7548 118.347 84.5076L120.865 84.6738C120.738 85.2789 120.475 85.8074 120.079 86.2591C119.687 86.7065 119.18 87.0559 118.558 87.3074C117.94 87.5545 117.226 87.6781 116.417 87.6781Z" fill="#E84142"/>
</svg>
